<svg version="1.1" xmlns="http://www.w3.org/2000/svg" viewBox="0 0 397.0328293785791 227.29119952836527" width="397.0328293785791" height="227.29119952836527" filter="invert(93%) hue-rotate(180deg)" class="excalidraw-svg">
  <!-- svg-source:excalidraw -->
  
  <defs>
    <style class="style-fonts">
      
    </style>
    
  </defs>
  <g transform="translate(28.115287040376813 16.079048429762963) rotate(3.442387047151584 29.599990844726562 41.20001220703125)" stroke="none"><path fill="#fe5c7e" d="M 8.68,6.13 Q 8.68,6.13 5.97,10.07 3.25,14.00 0.84,18.95 -1.57,23.89 -3.31,30.88 -5.05,37.87 -5.25,42.84 -5.46,47.81 0.20,49.27 5.86,50.73 9.89,49.18 13.92,47.63 18.44,45.06 22.96,42.49 26.47,39.11 29.99,35.73 33.36,29.90 36.73,24.06 37.16,18.25 37.59,12.44 36.92,8.12 36.25,3.79 36.14,2.13 36.02,0.48 36.31,-1.15 36.59,-2.78 37.26,-4.30 37.93,-5.81 38.94,-7.13 39.95,-8.44 41.25,-9.47 42.55,-10.51 44.05,-11.20 45.56,-11.89 47.19,-12.21 48.82,-12.52 50.47,-12.43 52.13,-12.34 53.72,-11.86 55.30,-11.38 56.73,-10.54 58.16,-9.69 59.34,-8.53 60.52,-7.36 61.39,-5.95 62.26,-4.54 62.77,-2.96 63.27,-1.38 64.96,4.29 66.66,9.96 68.47,16.06 70.29,22.16 72.46,29.63 74.64,37.10 76.91,44.22 79.17,51.33 81.10,57.20 83.03,63.06 84.89,67.43 86.75,71.81 88.12,73.56 89.48,75.31 89.88,76.91 90.28,78.50 90.29,80.15 90.29,81.80 89.90,83.40 89.51,85.00 88.75,86.46 87.99,87.92 86.90,89.15 85.81,90.39 84.46,91.33 83.11,92.27 81.57,92.86 80.03,93.45 78.40,93.65 76.76,93.85 75.13,93.66 73.49,93.46 71.95,92.88 70.41,92.30 69.05,91.37 67.69,90.44 66.60,89.21 65.50,87.98 64.73,86.53 63.96,85.07 65.00,78.37 66.04,71.68 67.68,70.19 69.32,68.71 71.35,67.83 73.37,66.95 75.58,66.76 77.78,66.57 79.92,67.10 82.07,67.62 83.94,68.80 85.81,69.99 87.20,71.70 88.59,73.42 89.36,75.49 90.13,77.56 90.20,79.77 90.27,81.98 89.63,84.10 88.99,86.21 87.70,88.01 86.42,89.81 84.63,91.11 82.84,92.41 80.73,93.06 78.62,93.72 76.41,93.67 74.20,93.62 72.12,92.86 70.05,92.11 68.32,90.73 66.59,89.35 65.39,87.50 64.20,85.64 63.65,83.50 63.11,81.35 63.28,79.15 63.45,76.95 64.32,74.91 65.19,72.88 66.65,71.23 68.12,69.58 70.04,68.48 71.96,67.39 74.13,66.96 76.30,66.54 78.49,66.83 80.68,67.12 82.67,68.09 84.65,69.07 86.22,70.62 87.79,72.18 88.78,74.16 89.77,76.13 90.07,78.32 90.38,80.51 89.97,82.68 89.56,84.85 89.52,80.08 89.48,75.31 89.88,76.91 90.28,78.50 90.29,80.15 90.29,81.80 89.90,83.40 89.51,85.00 88.75,86.46 87.99,87.92 86.90,89.15 85.81,90.39 84.46,91.33 83.11,92.27 81.57,92.86 80.03,93.44 78.40,93.65 76.76,93.85 75.13,93.66 73.49,93.46 71.95,92.88 70.41,92.31 69.05,91.37 67.70,90.44 66.60,89.21 65.50,87.98 64.73,86.53 63.97,85.07 62.38,82.52 60.79,79.97 59.04,74.95 57.28,69.92 55.58,64.58 53.87,59.24 51.63,52.57 49.38,45.90 46.90,38.38 44.41,30.86 42.98,26.83 41.55,22.80 40.08,17.45 38.61,12.10 37.43,7.94 36.25,3.79 36.14,2.13 36.02,0.48 36.31,-1.14 36.59,-2.78 37.26,-4.30 37.93,-5.81 38.94,-7.13 39.95,-8.44 41.25,-9.47 42.55,-10.51 44.05,-11.20 45.56,-11.89 47.19,-12.21 48.82,-12.52 50.47,-12.43 52.13,-12.34 53.72,-11.86 55.30,-11.38 56.73,-10.54 58.16,-9.69 59.34,-8.53 60.52,-7.37 61.39,-5.95 62.26,-4.54 62.76,-2.96 63.27,-1.38 63.71,3.12 64.15,7.63 64.14,13.33 64.13,19.02 62.73,26.65 61.32,34.28 59.35,38.85 57.37,43.42 54.92,47.10 52.46,50.78 47.60,55.72 42.74,60.66 36.39,65.13 30.04,69.60 24.14,72.39 18.23,75.17 11.85,76.17 5.46,77.16 1.09,76.91 -3.27,76.66 -9.05,75.35 -14.83,74.04 -19.78,69.93 -24.72,65.81 -26.90,59.39 -29.08,52.96 -28.82,46.47 -28.56,39.97 -26.78,32.29 -25.00,24.61 -23.26,18.95 -21.53,13.29 -17.91,7.46 -14.29,1.63 -11.49,-2.25 -8.68,-6.13 -7.82,-7.08 -6.96,-8.03 -5.90,-8.75 -4.84,-9.46 -3.64,-9.91 -2.43,-10.35 -1.16,-10.49 0.11,-10.63 1.38,-10.46 2.65,-10.30 3.84,-9.83 5.04,-9.36 6.08,-8.62 7.13,-7.88 7.97,-6.91 8.81,-5.94 9.40,-4.80 9.98,-3.66 10.27,-2.41 10.57,-1.17 10.55,0.11 10.54,1.39 10.22,2.63 9.90,3.87 9.29,5.00 8.68,6.13 8.68,6.13 L 8.68,6.13 Z"></path></g><g transform="translate(129.45073372697414 27.059889244183125) rotate(3.442387047151584 58 25.20001220703125)" stroke="none"><path fill="#ff556f" d="M 10.35,-2.58 Q 10.35,-2.58 11.55,1.99 12.75,6.58 13.64,11.23 14.53,15.88 15.90,23.02 17.27,30.15 17.72,36.10 18.17,42.05 18.40,47.08 18.63,52.10 19.09,56.49 19.54,60.87 19.36,62.39 19.18,63.90 18.64,65.34 18.10,66.77 17.23,68.03 16.36,69.29 15.22,70.30 14.08,71.32 12.72,72.03 11.37,72.74 9.89,73.11 8.40,73.48 6.87,73.48 5.34,73.48 3.86,73.12 2.37,72.76 1.02,72.05 -0.33,71.34 -1.48,70.33 -2.62,69.31 -3.49,68.05 -4.36,66.80 -4.91,65.37 -5.45,63.94 -5.64,62.42 -5.82,60.90 -5.44,55.99 -5.06,51.07 -4.15,43.59 -3.24,36.12 -1.39,27.04 0.45,17.96 1.72,13.58 2.99,9.21 5.09,4.83 7.20,0.45 11.76,-5.54 16.32,-11.55 21.10,-15.75 25.87,-19.95 31.63,-22.42 37.39,-24.89 41.65,-23.73 45.91,-22.57 49.83,-20.02 53.76,-17.47 56.27,-13.54 58.77,-9.61 61.07,-4.64 63.36,0.32 65.60,5.89 67.84,11.47 69.99,18.32 72.13,25.17 73.10,31.66 74.07,38.16 74.29,42.98 74.51,47.81 74.65,52.47 74.80,57.14 74.81,57.26 74.81,57.39 74.61,59.06 74.41,60.74 73.82,62.32 73.22,63.91 72.26,65.30 71.30,66.69 70.04,67.81 68.78,68.94 67.28,69.72 65.79,70.51 64.15,70.92 62.51,71.32 60.82,71.33 59.13,71.33 57.48,70.93 55.84,70.53 54.35,69.74 52.85,68.96 51.58,67.84 50.31,66.72 49.35,65.33 48.39,63.94 47.79,62.36 47.19,60.79 46.98,59.11 46.77,57.43 45.60,49.91 44.43,42.39 44.69,35.37 44.94,28.34 46.81,20.45 48.68,12.56 52.45,5.79 56.22,-0.97 60.39,-5.80 64.55,-10.62 69.45,-14.18 74.35,-17.74 80.32,-19.59 86.29,-21.44 92.89,-21.44 99.49,-21.43 103.66,-19.56 107.84,-17.69 111.12,-14.59 114.40,-11.49 118.07,-5.39 121.74,0.69 123.19,5.33 124.63,9.96 126.32,19.38 128.01,28.80 128.61,35.67 129.22,42.55 129.37,47.39 129.53,52.24 127.97,58.57 126.41,64.90 120.55,69.28 114.68,73.66 112.45,73.56 110.23,73.46 108.14,72.66 106.06,71.85 104.35,70.43 102.63,69.00 101.46,67.10 100.29,65.20 99.79,63.02 99.29,60.85 99.51,58.63 99.73,56.41 100.64,54.37 101.56,52.34 103.08,50.70 104.60,49.07 106.56,48.00 108.52,46.94 110.72,46.56 112.91,46.17 115.12,46.51 117.32,46.85 119.31,47.88 121.29,48.90 122.84,50.51 124.39,52.11 125.35,54.13 126.30,56.14 126.57,58.36 126.83,60.57 126.37,62.76 125.92,64.94 124.79,66.86 123.65,68.79 121.97,70.25 120.28,71.71 118.22,72.56 116.15,73.40 113.93,73.55 111.70,73.69 109.54,73.11 107.39,72.54 105.53,71.31 103.67,70.07 102.30,68.31 100.93,66.55 100.20,64.44 99.47,62.33 99.44,60.10 99.42,57.87 100.11,55.75 100.80,53.63 102.14,51.84 103.47,50.05 105.30,48.78 107.14,47.50 109.28,46.89 111.43,46.27 111.42,46.27 111.42,46.27 106.90,49.45 102.38,52.64 102.35,48.22 102.32,43.81 101.90,38.57 101.48,33.33 100.54,28.96 99.61,24.59 98.03,19.02 96.46,13.45 91.48,10.28 86.49,7.11 83.01,10.43 79.52,13.76 76.60,19.28 73.67,24.81 73.10,30.40 72.54,36.00 72.48,41.36 72.43,46.73 73.62,52.06 74.81,57.39 74.61,59.06 74.41,60.74 73.82,62.32 73.22,63.90 72.26,65.30 71.30,66.69 70.04,67.81 68.78,68.93 67.28,69.72 65.79,70.51 64.15,70.92 62.51,71.32 60.82,71.33 59.13,71.33 57.49,70.93 55.84,70.53 54.35,69.74 52.85,68.96 51.58,67.84 50.32,66.72 49.35,65.33 48.39,63.95 47.79,62.37 47.19,60.79 46.98,59.11 46.77,57.43 46.78,57.31 46.78,57.18 46.87,52.77 46.96,48.35 46.78,42.53 46.60,36.71 45.66,32.10 44.71,27.48 42.43,21.68 40.15,15.87 39.42,9.20 38.70,2.53 35.48,5.68 32.25,8.84 29.70,12.43 27.15,16.02 25.21,23.77 23.26,31.52 22.80,35.85 22.33,40.19 21.54,46.18 20.75,52.18 20.15,56.52 19.54,60.87 19.36,62.38 19.18,63.90 18.64,65.33 18.10,66.76 17.23,68.02 16.36,69.28 15.22,70.30 14.08,71.32 12.72,72.03 11.37,72.74 9.89,73.11 8.40,73.48 6.87,73.48 5.34,73.48 3.86,73.12 2.37,72.76 1.02,72.05 -0.33,71.34 -1.47,70.33 -2.62,69.31 -3.49,68.06 -4.36,66.80 -4.91,65.37 -5.45,63.94 -5.64,62.42 -5.82,60.90 -5.93,58.57 -6.03,56.23 -5.87,51.66 -5.71,47.09 -5.57,42.22 -5.44,37.36 -5.55,32.32 -5.66,27.29 -6.91,19.55 -8.15,11.81 -9.25,7.20 -10.35,2.58 -10.51,1.31 -10.67,0.03 -10.52,-1.24 -10.37,-2.52 -9.92,-3.72 -9.46,-4.92 -8.74,-5.99 -8.01,-7.05 -7.05,-7.90 -6.09,-8.76 -4.95,-9.36 -3.81,-9.96 -2.56,-10.28 -1.32,-10.59 -0.03,-10.59 1.25,-10.60 2.50,-10.29 3.75,-9.99 4.89,-9.39 6.03,-8.80 7.00,-7.95 7.96,-7.10 8.70,-6.04 9.43,-4.99 9.89,-3.78 10.35,-2.58 10.35,-2.58 L 10.35,-2.58 Z"></path></g><g transform="translate(263.3061487028442 24.161285237727554) rotate(3.442387047151584 62.399993896484375 28)" stroke="none"><path fill="#ff556f" d="M 9.92,-3.96 Q 9.92,-3.96 11.78,0.62 13.65,5.21 14.98,9.59 16.30,13.96 17.81,21.32 19.33,28.69 20.54,34.90 21.76,41.11 22.15,46.70 22.55,52.28 23.26,57.27 23.97,62.25 24.68,65.83 25.39,69.40 25.31,70.96 25.23,72.53 24.79,74.03 24.34,75.53 23.54,76.88 22.75,78.23 21.65,79.35 20.56,80.48 19.23,81.30 17.89,82.13 16.40,82.61 14.91,83.10 13.35,83.21 11.79,83.32 10.24,83.06 8.70,82.79 7.26,82.17 5.82,81.54 4.58,80.59 3.33,79.64 2.35,78.42 1.37,77.19 0.71,75.77 0.05,74.35 -0.24,72.81 -0.54,71.27 -0.50,64.40 -0.46,57.53 -0.47,51.22 -0.47,44.91 0.05,40.56 0.59,36.22 1.83,30.24 3.06,24.26 6.19,17.66 9.32,11.06 13.07,5.54 16.83,0.02 20.75,-4.47 24.67,-8.97 28.94,-11.88 33.22,-14.79 39.54,-15.30 45.87,-15.80 52.12,-10.07 58.37,-4.34 61.50,1.88 64.63,8.11 66.91,15.17 69.18,22.24 70.10,27.29 71.02,32.34 71.58,37.59 72.14,42.84 72.56,47.16 72.99,51.48 73.18,55.94 73.38,60.40 73.38,60.50 73.39,60.59 73.19,62.29 72.99,63.99 72.39,65.59 71.79,67.19 70.83,68.61 69.87,70.02 68.59,71.16 67.31,72.30 65.80,73.10 64.29,73.91 62.63,74.32 60.97,74.74 59.26,74.75 57.55,74.76 55.89,74.36 54.22,73.96 52.71,73.17 51.19,72.38 49.90,71.25 48.61,70.13 47.63,68.72 46.66,67.32 46.04,65.72 45.43,64.12 45.21,62.43 45.00,60.73 45.01,53.39 45.02,46.06 45.18,38.65 45.33,31.24 45.66,26.91 45.98,22.57 46.97,17.98 47.96,13.40 50.01,6.36 52.07,-0.67 54.82,-6.60 57.58,-12.53 60.75,-17.04 63.93,-21.55 68.13,-24.40 72.33,-27.25 77.69,-27.98 83.05,-28.71 88.64,-26.56 94.24,-24.40 99.08,-20.86 103.91,-17.32 109.78,-11.22 115.65,-5.13 120.12,0.78 124.59,6.71 128.02,13.66 131.45,20.60 133.48,24.95 135.51,29.31 136.63,33.86 137.75,38.41 138.19,43.41 138.62,48.41 137.17,57.68 135.73,66.95 134.15,68.59 132.58,70.23 130.56,71.28 128.55,72.34 126.30,72.69 124.05,73.05 121.81,72.66 119.57,72.28 117.56,71.20 115.56,70.13 114.01,68.46 112.45,66.80 111.51,64.73 110.57,62.66 110.34,60.40 110.10,58.14 110.61,55.92 111.11,53.70 112.29,51.76 113.48,49.82 115.22,48.35 116.97,46.89 119.08,46.06 121.20,45.23 123.48,45.13 125.75,45.02 127.94,45.64 130.12,46.26 132.00,47.55 133.87,48.84 135.24,50.66 136.60,52.48 137.32,54.64 138.03,56.80 138.01,59.07 138.00,61.35 137.26,63.50 136.52,65.65 135.13,67.45 133.74,69.26 131.85,70.52 129.96,71.78 127.77,72.38 125.57,72.97 123.30,72.84 121.03,72.70 118.92,71.84 116.81,70.99 115.09,69.50 113.36,68.02 112.20,66.06 111.04,64.11 110.57,61.88 110.09,59.66 110.35,57.40 110.62,55.14 111.58,53.08 112.55,51.02 112.55,51.02 112.55,51.02 111.66,50.18 110.76,49.34 110.31,44.11 109.86,38.88 108.10,34.94 106.34,30.99 104.41,26.81 102.47,22.63 98.65,17.77 94.82,12.91 91.02,9.01 87.22,5.11 85.23,1.24 83.24,-2.61 80.46,2.70 77.68,8.02 76.09,13.69 74.51,19.36 73.78,25.30 73.06,31.25 73.21,38.65 73.37,46.06 73.38,53.32 73.39,60.59 73.19,62.29 72.99,63.99 72.39,65.59 71.80,67.19 70.83,68.61 69.87,70.02 68.59,71.16 67.32,72.30 65.80,73.10 64.29,73.91 62.63,74.32 60.98,74.74 59.26,74.75 57.55,74.76 55.89,74.36 54.23,73.96 52.71,73.17 51.19,72.38 49.90,71.25 48.61,70.13 47.64,68.72 46.66,67.32 46.04,65.72 45.43,64.13 45.21,62.43 45.00,60.73 45.02,59.94 45.04,59.14 44.99,54.58 44.94,50.01 44.49,44.19 44.04,38.36 42.80,31.57 41.56,24.78 40.30,19.98 39.05,15.18 35.99,19.50 32.93,23.82 30.46,29.17 27.99,34.52 27.03,39.73 26.07,44.95 26.05,51.28 26.04,57.62 25.71,63.51 25.39,69.39 25.31,70.96 25.23,72.53 24.79,74.03 24.34,75.53 23.54,76.88 22.75,78.23 21.65,79.35 20.56,80.47 19.23,81.30 17.90,82.13 16.40,82.61 14.91,83.10 13.35,83.21 11.79,83.32 10.24,83.06 8.70,82.80 7.26,82.17 5.82,81.54 4.58,80.59 3.33,79.64 2.35,78.42 1.37,77.19 0.71,75.77 0.05,74.35 -0.24,72.81 -0.54,71.27 -0.75,69.22 -0.95,67.16 -1.49,62.51 -2.02,57.87 -1.92,53.15 -1.81,48.43 -1.90,43.86 -1.98,39.29 -2.98,32.71 -3.99,26.12 -5.14,19.65 -6.29,13.18 -8.10,8.57 -9.92,3.96 -10.25,2.72 -10.58,1.47 -10.60,0.19 -10.62,-1.09 -10.34,-2.35 -10.05,-3.60 -9.47,-4.75 -8.90,-5.91 -8.06,-6.88 -7.22,-7.86 -6.18,-8.61 -5.13,-9.37 -3.93,-9.84 -2.74,-10.32 -1.46,-10.50 -0.19,-10.68 1.08,-10.55 2.37,-10.41 3.58,-9.98 4.79,-9.54 5.86,-8.83 6.94,-8.12 7.81,-7.17 8.68,-6.22 9.30,-5.09 9.92,-3.96 9.92,-3.96 L 9.92,-3.96 Z"></path></g><g transform="translate(82.88166990670493 124.44501718145835) rotate(358.93264148006443 -32.800018310546875 41.60003662109375)" stroke="none"><path fill="#ff5150" d="M -1.50,10.52 Q -1.50,10.52 -4.74,10.21 -7.98,9.90 -14.14,10.04 -20.30,10.17 -24.60,10.36 -28.91,10.55 -34.05,10.78 -39.19,11.02 -36.00,8.00 -32.82,4.99 -33.57,10.01 -34.33,15.03 -30.87,17.68 -27.41,20.32 -24.05,22.97 -20.69,25.61 -17.37,28.51 -14.05,31.42 -10.22,35.37 -6.38,39.32 -3.91,44.09 -1.43,48.85 -0.56,53.74 0.30,58.64 0.39,63.01 0.47,67.39 -0.82,73.70 -2.12,80.02 -4.74,83.85 -7.37,87.69 -10.91,90.39 -14.45,93.10 -18.60,95.27 -22.76,97.45 -28.40,98.61 -34.03,99.78 -39.61,99.43 -45.18,99.08 -49.54,97.97 -53.89,96.86 -58.17,94.70 -62.46,92.53 -67.61,89.52 -72.76,86.51 -76.76,78.79 -80.77,71.06 -80.56,68.60 -80.36,66.15 -79.38,63.88 -78.40,61.62 -76.75,59.79 -75.10,57.96 -72.95,56.75 -70.80,55.54 -68.38,55.08 -65.96,54.62 -63.51,54.95 -61.07,55.29 -58.86,56.39 -56.66,57.49 -54.92,59.24 -53.18,60.99 -52.08,63.20 -50.99,65.41 -50.67,67.86 -50.34,70.30 -50.81,72.72 -51.28,75.14 -52.50,77.29 -53.71,79.43 -55.55,81.07 -57.39,82.72 -59.66,83.69 -61.93,84.66 -64.39,84.85 -66.84,85.05 -69.24,84.45 -71.63,83.85 -73.70,82.51 -75.78,81.18 -77.32,79.25 -78.86,77.33 -79.71,75.01 -80.55,72.70 -80.61,70.23 -80.67,67.76 -79.94,65.41 -79.22,63.05 -77.77,61.05 -76.33,59.05 -74.32,57.62 -72.32,56.18 -69.96,55.47 -67.60,54.75 -65.13,54.82 -62.67,54.89 -60.36,55.75 -58.04,56.60 -56.12,58.15 -54.20,59.70 -52.88,61.78 -51.56,63.86 -50.97,66.26 -50.38,68.65 -50.38,68.65 -50.38,68.65 -52.48,65.23 -54.57,61.82 -50.57,64.22 -46.57,66.63 -41.71,68.15 -36.84,69.66 -33.05,67.59 -29.25,65.53 -29.01,61.13 -28.76,56.73 -32.60,53.25 -36.44,49.77 -40.33,46.47 -44.22,43.16 -48.39,40.03 -52.57,36.89 -55.52,33.42 -58.47,29.96 -59.79,25.90 -61.12,21.84 -61.16,15.24 -61.20,8.64 -59.21,2.82 -57.22,-2.98 -53.83,-6.74 -50.43,-10.50 -43.72,-12.30 -37.00,-14.09 -30.78,-13.80 -24.56,-13.52 -20.02,-13.24 -15.48,-12.96 -10.19,-12.35 -4.89,-11.74 -1.69,-11.13 1.50,-10.52 2.74,-10.19 3.97,-9.85 5.10,-9.23 6.22,-8.62 7.16,-7.75 8.10,-6.88 8.80,-5.81 9.51,-4.74 9.94,-3.53 10.37,-2.32 10.50,-1.05 10.62,0.22 10.44,1.49 10.26,2.76 9.78,3.94 9.30,5.13 8.55,6.17 7.80,7.21 6.82,8.04 5.85,8.87 4.70,9.44 3.55,10.01 2.30,10.29 1.05,10.57 -0.22,10.55 -1.50,10.52 -1.50,10.52 L -1.50,10.52 Z"></path></g><g transform="translate(238.19081046197743 124.16409088082293) rotate(358.93264148006443 -1.20001220703125 45.99993896484375)" stroke="none"><path fill="#ff5150" d="M -0.69,10.47 Q -0.69,10.47 -4.15,10.39 -7.61,10.32 -11.36,13.00 -15.10,15.67 -11.18,18.18 -7.26,20.68 0.11,21.64 7.49,22.60 13.61,23.49 19.73,24.39 25.14,27.80 30.54,31.22 32.73,35.32 34.92,39.41 36.29,43.94 37.66,48.47 38.08,54.40 38.49,60.32 38.57,65.92 38.64,71.53 38.21,76.40 37.78,81.27 35.39,86.28 32.99,91.30 29.93,95.39 26.88,99.48 22.65,101.98 18.42,104.48 13.48,106.01 8.54,107.53 3.98,107.65 -0.56,107.76 -5.23,107.76 -9.90,107.76 -16.27,107.46 -22.64,107.15 -27.83,105.49 -33.01,103.83 -36.45,99.71 -39.90,95.59 -37.58,85.96 -35.26,76.33 -33.31,74.87 -31.35,73.41 -29.02,72.65 -26.70,71.89 -24.26,71.91 -21.82,71.94 -19.51,72.74 -17.20,73.54 -15.27,75.04 -13.34,76.53 -11.99,78.57 -10.64,80.60 -10.00,82.96 -9.37,85.32 -9.53,87.76 -9.68,90.20 -10.61,92.46 -11.53,94.72 -13.13,96.57 -14.73,98.41 -16.84,99.65 -18.94,100.89 -21.33,101.40 -23.72,101.90 -26.15,101.61 -28.58,101.32 -30.78,100.28 -32.99,99.23 -34.75,97.53 -36.51,95.84 -37.63,93.67 -38.75,91.50 -39.13,89.08 -39.50,86.67 -39.08,84.26 -38.66,81.86 -37.50,79.71 -36.33,77.56 -34.54,75.90 -32.75,74.23 -30.53,73.23 -28.30,72.23 -25.87,71.98 -23.44,71.74 -21.06,72.29 -18.68,72.84 -16.59,74.12 -14.51,75.40 -12.95,77.28 -11.39,79.15 -10.50,81.43 -9.62,83.71 -9.51,86.15 -9.40,88.59 -10.08,90.94 -10.76,93.29 -12.15,95.29 -13.54,97.30 -13.54,97.30 -13.53,97.30 -15.45,87.55 -17.37,77.79 -12.22,77.82 -7.08,77.84 -0.92,78.56 5.23,79.28 7.29,75.41 9.35,71.54 9.39,66.11 9.43,60.68 8.95,55.75 8.48,50.83 3.80,49.79 -0.88,48.76 -5.26,48.21 -9.65,47.66 -14.28,46.55 -18.91,45.44 -24.34,42.04 -29.77,38.64 -33.10,34.57 -36.44,30.49 -37.50,26.02 -38.56,21.55 -38.47,16.45 -38.38,11.35 -36.39,6.18 -34.41,1.01 -31.12,-2.44 -27.84,-5.90 -22.93,-8.40 -18.02,-10.90 -12.10,-11.07 -6.18,-11.24 -2.74,-10.85 0.69,-10.47 1.94,-10.23 3.18,-10.00 4.33,-9.47 5.48,-8.94 6.47,-8.16 7.46,-7.37 8.24,-6.37 9.01,-5.37 9.52,-4.21 10.04,-3.06 10.26,-1.81 10.48,-0.56 10.39,0.69 10.31,1.95 9.92,3.16 9.54,4.36 8.88,5.44 8.22,6.52 7.32,7.41 6.42,8.30 5.33,8.95 4.24,9.59 3.03,9.96 1.82,10.33 0.56,10.40 -0.69,10.47 -0.69,10.47 L -0.69,10.47 Z"></path></g><g transform="translate(295.63817831593474 109.38058157187157) rotate(358.93264148006443 4.79998779296875 52)" stroke="none"><path fill="#ff5150" d="M 10.35,-0.73 Q 10.35,-0.73 10.64,5.71 10.94,12.16 11.43,17.12 11.92,22.09 13.06,31.05 14.19,40.01 14.59,48.00 14.99,56.00 15.43,63.11 15.87,70.22 16.55,76.35 17.24,82.48 17.83,86.95 18.43,91.41 19.85,94.82 21.26,98.22 21.69,99.71 22.11,101.21 22.16,102.75 22.21,104.30 21.89,105.82 21.57,107.34 20.90,108.73 20.23,110.13 19.24,111.33 18.25,112.52 17.00,113.44 15.76,114.37 14.33,114.97 12.90,115.56 11.37,115.80 9.84,116.04 8.29,115.91 6.75,115.77 5.28,115.27 3.81,114.77 2.51,113.94 1.20,113.10 0.14,111.97 -0.92,110.85 -1.69,109.50 -2.45,108.15 -2.90,105.57 -3.34,102.98 -3.93,100.98 -4.52,98.98 -4.44,96.89 -4.36,94.80 -3.62,92.85 -2.87,90.90 -1.55,89.29 -0.22,87.68 1.54,86.57 3.31,85.47 5.35,84.99 7.38,84.51 9.46,84.70 11.54,84.89 13.45,85.74 15.35,86.59 16.89,88.00 18.43,89.41 19.44,91.24 20.44,93.07 20.81,95.13 21.18,97.18 20.88,99.25 20.57,101.31 19.62,103.17 18.67,105.03 17.18,106.49 15.69,107.95 13.80,108.86 11.92,109.76 9.85,110.02 7.78,110.28 5.73,109.86 3.69,109.44 1.88,108.40 0.08,107.35 -1.29,105.78 -2.67,104.21 -3.47,102.28 -4.27,100.35 -4.42,98.27 -4.56,96.18 -4.04,94.16 -3.51,92.14 -2.36,90.40 -1.22,88.65 0.41,87.36 2.06,86.07 4.03,85.38 5.99,84.68 8.08,84.65 10.17,84.61 12.16,85.25 14.15,85.89 15.83,87.13 17.51,88.36 18.71,90.07 19.91,91.78 19.91,91.78 19.91,91.78 20.58,95.00 21.26,98.22 21.69,99.71 22.11,101.20 22.16,102.75 22.21,104.30 21.89,105.82 21.57,107.34 20.90,108.73 20.23,110.13 19.24,111.32 18.25,112.52 17.01,113.44 15.76,114.37 14.33,114.97 12.90,115.56 11.37,115.80 9.84,116.04 8.29,115.91 6.75,115.77 5.28,115.27 3.81,114.77 2.51,113.94 1.20,113.10 0.14,111.98 -0.92,110.85 -1.69,109.50 -2.45,108.16 -3.06,105.33 -3.66,102.50 -4.83,97.77 -6.00,93.04 -6.22,88.36 -6.45,83.68 -6.72,77.64 -6.98,71.60 -7.16,67.31 -7.34,63.02 -7.20,55.51 -7.07,48.00 -7.16,40.66 -7.25,33.32 -7.82,28.56 -8.38,23.81 -8.74,18.70 -9.10,13.59 -9.72,7.16 -10.35,0.73 -10.28,-0.51 -10.22,-1.75 -9.86,-2.95 -9.50,-4.15 -8.87,-5.23 -8.23,-6.31 -7.36,-7.20 -6.48,-8.09 -5.42,-8.75 -4.36,-9.41 -3.17,-9.80 -1.98,-10.18 -0.73,-10.27 0.51,-10.36 1.74,-10.15 2.97,-9.94 4.12,-9.43 5.27,-8.93 6.26,-8.17 7.25,-7.41 8.04,-6.44 8.82,-5.46 9.34,-4.32 9.87,-3.19 10.11,-1.96 10.35,-0.73 10.35,-0.73 L 10.35,-0.73 Z"></path></g><g transform="translate(304.72320034126494 164.77433218958873) rotate(358.93264148006443 28.39996337890625 11.60003662109375)" stroke="none"><path fill="#ff5150" d="M -3.57,-10.01 Q -3.57,-10.01 -0.40,-11.29 2.76,-12.58 7.23,-14.80 11.70,-17.02 16.60,-19.49 21.49,-21.97 26.30,-23.37 31.10,-24.78 36.48,-25.57 41.85,-26.36 48.54,-23.54 55.22,-20.71 58.81,-15.27 62.40,-9.84 64.33,-5.84 66.27,-1.84 67.66,3.24 69.05,8.33 69.77,13.03 70.49,17.73 70.69,22.08 70.88,26.44 70.00,30.85 69.13,35.26 67.45,39.01 65.78,42.75 64.38,44.59 62.98,46.42 61.07,47.71 59.15,49.00 56.93,49.61 54.70,50.23 52.40,50.09 50.09,49.96 47.95,49.10 45.81,48.24 44.06,46.75 42.30,45.25 41.12,43.27 39.93,41.29 39.44,39.03 38.95,36.77 39.21,34.48 39.46,32.19 40.44,30.10 41.41,28.00 43.00,26.33 44.60,24.66 46.64,23.59 48.68,22.51 50.96,22.14 53.24,21.78 55.51,22.16 57.79,22.53 59.82,23.62 61.86,24.71 63.44,26.39 65.03,28.07 65.99,30.16 66.95,32.26 67.20,34.56 67.44,36.85 66.94,39.10 66.43,41.36 65.24,43.33 64.04,45.31 62.28,46.79 60.52,48.28 58.37,49.13 56.23,49.98 53.92,50.10 51.62,50.22 49.39,49.59 47.17,48.97 45.27,47.67 43.36,46.37 41.97,44.53 40.58,42.69 39.85,40.50 39.11,38.31 39.12,36.00 39.13,33.69 39.87,31.51 40.61,29.32 40.61,29.32 40.61,29.33 41.67,28.40 42.73,27.47 42.80,22.78 42.88,18.08 42.24,13.46 41.61,8.84 41.32,4.04 41.03,-0.76 36.22,-0.32 31.40,0.11 25.83,2.18 20.27,4.25 15.19,6.12 10.11,7.98 6.84,8.99 3.57,10.01 2.32,10.29 1.07,10.57 -0.20,10.55 -1.48,10.52 -2.72,10.19 -3.96,9.86 -5.08,9.24 -6.20,8.63 -7.15,7.76 -8.09,6.89 -8.80,5.82 -9.50,4.75 -9.93,3.54 -10.37,2.34 -10.49,1.06 -10.62,-0.20 -10.45,-1.47 -10.27,-2.74 -9.79,-3.93 -9.31,-5.12 -8.56,-6.16 -7.81,-7.20 -6.84,-8.03 -5.86,-8.86 -4.72,-9.43 -3.57,-10.01 -3.57,-10.01 L -3.57,-10.01 Z"></path></g><g transform="translate(117.05793294549267 112.5848995774133) rotate(10.726137933642018 4.79998779296875 52)" stroke="none"><path fill="#ff5150" d="M 10.35,-0.73 Q 10.35,-0.73 10.64,5.71 10.94,12.16 11.43,17.12 11.92,22.09 13.06,31.05 14.19,40.01 14.59,48.00 14.99,56.00 15.43,63.11 15.87,70.22 16.55,76.35 17.24,82.48 17.83,86.95 18.43,91.41 19.85,94.82 21.26,98.22 21.69,99.71 22.11,101.21 22.16,102.75 22.21,104.30 21.89,105.82 21.57,107.34 20.90,108.73 20.23,110.13 19.24,111.33 18.25,112.52 17.00,113.44 15.76,114.37 14.33,114.97 12.90,115.56 11.37,115.80 9.84,116.04 8.29,115.91 6.75,115.77 5.28,115.27 3.81,114.77 2.51,113.94 1.20,113.10 0.14,111.97 -0.92,110.85 -1.69,109.50 -2.45,108.15 -2.90,105.57 -3.34,102.98 -3.93,100.98 -4.52,98.98 -4.44,96.89 -4.36,94.80 -3.62,92.85 -2.87,90.90 -1.55,89.29 -0.22,87.68 1.54,86.57 3.31,85.47 5.35,84.99 7.38,84.51 9.46,84.70 11.54,84.89 13.45,85.74 15.35,86.59 16.89,88.00 18.43,89.41 19.44,91.24 20.44,93.07 20.81,95.13 21.18,97.18 20.88,99.25 20.57,101.31 19.62,103.17 18.67,105.03 17.18,106.49 15.69,107.95 13.80,108.86 11.92,109.76 9.85,110.02 7.78,110.28 5.73,109.86 3.69,109.44 1.88,108.40 0.08,107.35 -1.29,105.78 -2.67,104.21 -3.47,102.28 -4.27,100.35 -4.42,98.27 -4.56,96.18 -4.04,94.16 -3.51,92.14 -2.36,90.40 -1.22,88.65 0.41,87.36 2.06,86.07 4.03,85.38 5.99,84.68 8.08,84.65 10.17,84.61 12.16,85.25 14.15,85.89 15.83,87.13 17.51,88.36 18.71,90.07 19.91,91.78 19.91,91.78 19.91,91.78 20.58,95.00 21.26,98.22 21.69,99.71 22.11,101.20 22.16,102.75 22.21,104.30 21.89,105.82 21.57,107.34 20.90,108.73 20.23,110.13 19.24,111.32 18.25,112.52 17.01,113.44 15.76,114.37 14.33,114.97 12.90,115.56 11.37,115.80 9.84,116.04 8.29,115.91 6.75,115.77 5.28,115.27 3.81,114.77 2.51,113.94 1.20,113.10 0.14,111.98 -0.92,110.85 -1.69,109.50 -2.45,108.16 -3.06,105.33 -3.66,102.50 -4.83,97.77 -6.00,93.04 -6.22,88.36 -6.45,83.68 -6.72,77.64 -6.98,71.60 -7.16,67.31 -7.34,63.02 -7.20,55.51 -7.07,48.00 -7.16,40.66 -7.25,33.32 -7.82,28.56 -8.38,23.81 -8.74,18.70 -9.10,13.59 -9.72,7.16 -10.35,0.73 -10.28,-0.51 -10.22,-1.75 -9.86,-2.95 -9.50,-4.15 -8.87,-5.23 -8.23,-6.31 -7.36,-7.20 -6.48,-8.09 -5.42,-8.75 -4.36,-9.41 -3.17,-9.80 -1.98,-10.18 -0.73,-10.27 0.51,-10.36 1.74,-10.15 2.97,-9.94 4.12,-9.43 5.27,-8.93 6.26,-8.17 7.25,-7.41 8.04,-6.44 8.82,-5.46 9.34,-4.32 9.87,-3.19 10.11,-1.96 10.35,-0.73 10.35,-0.73 L 10.35,-0.73 Z"></path></g><g transform="translate(122.38848978152373 174.3424615664805) rotate(10.726137933642018 28.39996337890625 11.60003662109375)" stroke="none"><path fill="#ff5150" d="M -3.57,-10.01 Q -3.57,-10.01 -0.40,-11.29 2.76,-12.58 7.23,-14.80 11.70,-17.02 16.60,-19.49 21.49,-21.97 26.30,-23.37 31.10,-24.78 36.48,-25.57 41.85,-26.36 48.54,-23.54 55.22,-20.71 58.81,-15.27 62.40,-9.84 64.33,-5.84 66.27,-1.84 67.66,3.24 69.05,8.33 69.77,13.03 70.49,17.73 70.69,22.08 70.88,26.44 70.00,30.85 69.13,35.26 67.45,39.01 65.78,42.75 64.38,44.59 62.98,46.42 61.07,47.71 59.15,49.00 56.93,49.61 54.70,50.23 52.40,50.09 50.09,49.96 47.95,49.10 45.81,48.24 44.06,46.75 42.30,45.25 41.12,43.27 39.93,41.29 39.44,39.03 38.95,36.77 39.21,34.48 39.46,32.19 40.44,30.10 41.41,28.00 43.00,26.33 44.60,24.66 46.64,23.59 48.68,22.51 50.96,22.14 53.24,21.78 55.51,22.16 57.79,22.53 59.82,23.62 61.86,24.71 63.44,26.39 65.03,28.07 65.99,30.16 66.95,32.26 67.20,34.56 67.44,36.85 66.94,39.10 66.43,41.36 65.24,43.33 64.04,45.31 62.28,46.79 60.52,48.28 58.37,49.13 56.23,49.98 53.92,50.10 51.62,50.22 49.39,49.59 47.17,48.97 45.27,47.67 43.36,46.37 41.97,44.53 40.58,42.69 39.85,40.50 39.11,38.31 39.12,36.00 39.13,33.69 39.87,31.51 40.61,29.32 40.61,29.32 40.61,29.33 41.67,28.40 42.73,27.47 42.80,22.78 42.88,18.08 42.24,13.46 41.61,8.84 41.32,4.04 41.03,-0.76 36.22,-0.32 31.40,0.11 25.83,2.18 20.27,4.25 15.19,6.12 10.11,7.98 6.84,8.99 3.57,10.01 2.32,10.29 1.07,10.57 -0.20,10.55 -1.48,10.52 -2.72,10.19 -3.96,9.86 -5.08,9.24 -6.20,8.63 -7.15,7.76 -8.09,6.89 -8.80,5.82 -9.50,4.75 -9.93,3.54 -10.37,2.34 -10.49,1.06 -10.62,-0.20 -10.45,-1.47 -10.27,-2.74 -9.79,-3.93 -9.31,-5.12 -8.56,-6.16 -7.81,-7.20 -6.84,-8.03 -5.86,-8.86 -4.72,-9.43 -3.57,-10.01 -3.57,-10.01 L -3.57,-10.01 Z"></path></g></svg>