<?xml version="1.0" encoding="UTF-8" standalone="no"?>
<!DOCTYPE svg PUBLIC "-//W3C//DTD SVG 1.1//EN" "http://www.w3.org/Graphics/SVG/1.1/DTD/svg11.dtd">
<svg width="100%" height="100%" viewBox="0 0 398 228" version="1.1" xmlns="http://www.w3.org/2000/svg" xmlns:xlink="http://www.w3.org/1999/xlink" xml:space="preserve" xmlns:serif="http://www.serif.com/" style="fill-rule:evenodd;clip-rule:evenodd;stroke-linejoin:round;stroke-miterlimit:2;">
    <g id="BOT">
        <g transform="matrix(0.999826,-0.018628,0.018628,0.999826,82.10106,123.841242)">
            <path d="M-1.5,10.52C-1.5,10.52 -2.58,10.417 -4.74,10.21C-6.9,10.003 -10.033,9.947 -14.14,10.04C-18.247,10.127 -21.733,10.233 -24.6,10.36C-27.473,10.487 -30.623,10.627 -34.05,10.78C-37.477,10.94 -38.127,10.013 -36,8C-33.88,5.993 -33.07,6.663 -33.57,10.01C-34.077,13.357 -33.177,15.913 -30.87,17.68C-28.563,19.44 -26.29,21.203 -24.05,22.97C-21.81,24.73 -19.583,26.577 -17.37,28.51C-15.157,30.45 -12.773,32.737 -10.22,35.37C-7.66,38.003 -5.557,40.91 -3.91,44.09C-2.257,47.263 -1.14,50.48 -0.56,53.74C0.013,57.007 0.33,60.097 0.39,63.01C0.443,65.93 0.04,69.493 -0.82,73.7C-1.687,77.913 -2.993,81.297 -4.74,83.85C-6.493,86.41 -8.55,88.59 -10.91,90.39C-13.27,92.197 -15.833,93.823 -18.6,95.27C-21.373,96.723 -24.64,97.837 -28.4,98.61C-32.153,99.39 -35.89,99.663 -39.61,99.43C-43.323,99.197 -46.633,98.71 -49.54,97.97C-52.44,97.23 -55.317,96.14 -58.17,94.7C-61.03,93.253 -64.177,91.527 -67.61,89.52C-71.043,87.513 -74.093,83.937 -76.76,78.79C-79.433,73.637 -80.7,70.24 -80.56,68.6C-80.427,66.967 -80.033,65.393 -79.38,63.88C-78.727,62.373 -77.85,61.01 -76.75,59.79C-75.65,58.57 -74.383,57.557 -72.95,56.75C-71.517,55.943 -69.993,55.387 -68.38,55.08C-66.767,54.773 -65.143,54.73 -63.51,54.95C-61.883,55.177 -60.333,55.657 -58.86,56.39C-57.393,57.123 -56.08,58.073 -54.92,59.24C-53.76,60.407 -52.813,61.727 -52.08,63.2C-51.353,64.673 -50.883,66.227 -50.67,67.86C-50.45,69.487 -50.497,71.107 -50.81,72.72C-51.123,74.333 -51.687,75.857 -52.5,77.29C-53.307,78.717 -54.323,79.977 -55.55,81.07C-56.777,82.17 -58.147,83.043 -59.66,83.69C-61.173,84.337 -62.75,84.723 -64.39,84.85C-66.023,84.983 -67.64,84.85 -69.24,84.45C-70.833,84.05 -72.32,83.403 -73.7,82.51C-75.087,81.623 -76.293,80.537 -77.32,79.25C-78.347,77.97 -79.143,76.557 -79.71,75.01C-80.27,73.47 -80.57,71.877 -80.61,70.23C-80.65,68.583 -80.427,66.977 -79.94,65.41C-79.46,63.837 -78.737,62.383 -77.77,61.05C-76.81,59.717 -75.66,58.573 -74.32,57.62C-72.987,56.66 -71.533,55.943 -69.96,55.47C-68.387,54.99 -66.777,54.773 -65.13,54.82C-63.49,54.867 -61.9,55.177 -60.36,55.75C-58.813,56.317 -57.4,57.117 -56.12,58.15C-54.84,59.183 -53.76,60.393 -52.88,61.78C-52,63.167 -51.363,64.66 -50.97,66.26C-50.577,67.853 -50.38,68.65 -50.38,68.65C-50.38,68.65 -51.08,67.51 -52.48,65.23C-53.873,62.957 -53.237,62.62 -50.57,64.22C-47.903,65.827 -44.95,67.137 -41.71,68.15C-38.463,69.157 -35.577,68.97 -33.05,67.59C-30.517,66.217 -29.17,64.063 -29.01,61.13C-28.843,58.197 -30.04,55.57 -32.6,53.25C-35.16,50.93 -37.737,48.67 -40.33,46.47C-42.923,44.263 -45.61,42.117 -48.39,40.03C-51.177,37.937 -53.553,35.733 -55.52,33.42C-57.487,31.113 -58.91,28.607 -59.79,25.9C-60.677,23.193 -61.133,19.64 -61.16,15.24C-61.187,10.84 -60.537,6.7 -59.21,2.82C-57.883,-1.047 -56.09,-4.233 -53.83,-6.74C-51.563,-9.247 -48.193,-11.1 -43.72,-12.3C-39.24,-13.493 -34.927,-13.993 -30.78,-13.8C-26.633,-13.613 -23.047,-13.427 -20.02,-13.24C-16.993,-13.053 -13.717,-12.757 -10.19,-12.35C-6.657,-11.943 -3.823,-11.537 -1.69,-11.13C0.437,-10.723 1.913,-10.41 2.74,-10.19C3.56,-9.963 4.347,-9.643 5.1,-9.23C5.847,-8.823 6.533,-8.33 7.16,-7.75C7.787,-7.17 8.333,-6.523 8.8,-5.81C9.273,-5.097 9.653,-4.337 9.94,-3.53C10.227,-2.723 10.413,-1.897 10.5,-1.05C10.58,-0.203 10.56,0.643 10.44,1.49C10.32,2.337 10.1,3.153 9.78,3.94C9.46,4.733 9.05,5.477 8.55,6.17C8.05,6.863 7.473,7.487 6.82,8.04C6.173,8.593 5.467,9.06 4.7,9.44C3.933,9.82 3.133,10.103 2.3,10.29C1.467,10.477 0.627,10.563 -0.22,10.55C-1.073,10.53 -1.5,10.52 -1.5,10.52Z" style="fill:rgb(244,63,94);fill-rule:nonzero;"/>
        </g>
        <g transform="matrix(0.999826,-0.018628,0.018628,0.999826,237.333723,124.149719)">
            <path d="M-0.69,10.47C-0.69,10.47 -1.843,10.443 -4.15,10.39C-6.457,10.343 -8.86,11.213 -11.36,13C-13.853,14.78 -13.793,16.507 -11.18,18.18C-8.567,19.847 -4.803,21 0.11,21.64C5.03,22.28 9.53,22.897 13.61,23.49C17.69,24.09 21.533,25.527 25.14,27.8C28.74,30.08 31.27,32.587 32.73,35.32C34.19,38.047 35.377,40.92 36.29,43.94C37.203,46.96 37.8,50.447 38.08,54.4C38.353,58.347 38.517,62.187 38.57,65.92C38.617,69.66 38.497,73.153 38.21,76.4C37.923,79.647 36.983,82.94 35.39,86.28C33.79,89.627 31.97,92.663 29.93,95.39C27.897,98.117 25.47,100.313 22.65,101.98C19.83,103.647 16.773,104.99 13.48,106.01C10.187,107.023 7.02,107.57 3.98,107.65C0.953,107.723 -2.117,107.76 -5.23,107.76C-8.343,107.76 -12.023,107.66 -16.27,107.46C-20.517,107.253 -24.37,106.597 -27.83,105.49C-31.283,104.383 -34.157,102.457 -36.45,99.71C-38.75,96.963 -39.127,92.38 -37.58,85.96C-36.033,79.54 -34.61,75.843 -33.31,74.87C-32.003,73.897 -30.573,73.157 -29.02,72.65C-27.473,72.143 -25.887,71.897 -24.26,71.91C-22.633,71.93 -21.05,72.207 -19.51,72.74C-17.97,73.273 -16.557,74.04 -15.27,75.04C-13.983,76.033 -12.89,77.21 -11.99,78.57C-11.09,79.923 -10.427,81.387 -10,82.96C-9.58,84.533 -9.423,86.133 -9.53,87.76C-9.63,89.387 -9.99,90.953 -10.61,92.46C-11.223,93.967 -12.063,95.337 -13.13,96.57C-14.197,97.797 -15.433,98.823 -16.84,99.65C-18.24,100.477 -19.737,101.06 -21.33,101.4C-22.923,101.733 -24.53,101.803 -26.15,101.61C-27.77,101.417 -29.313,100.973 -30.78,100.28C-32.253,99.58 -33.577,98.663 -34.75,97.53C-35.923,96.403 -36.883,95.117 -37.63,93.67C-38.377,92.223 -38.877,90.693 -39.13,89.08C-39.377,87.473 -39.36,85.867 -39.08,84.26C-38.8,82.66 -38.273,81.143 -37.5,79.71C-36.72,78.277 -35.733,77.007 -34.54,75.9C-33.347,74.787 -32.01,73.897 -30.53,73.23C-29.043,72.563 -27.49,72.147 -25.87,71.98C-24.25,71.82 -22.647,71.923 -21.06,72.29C-19.473,72.657 -17.983,73.267 -16.59,74.12C-15.203,74.973 -13.99,76.027 -12.95,77.28C-11.91,78.527 -11.093,79.91 -10.5,81.43C-9.913,82.95 -9.583,84.523 -9.51,86.15C-9.437,87.777 -9.627,89.373 -10.08,90.94C-10.533,92.507 -11.223,93.957 -12.15,95.29C-13.077,96.63 -13.54,97.3 -13.54,97.3C-13.533,97.3 -14.17,94.05 -15.45,87.55C-16.73,81.043 -15.653,77.8 -12.22,77.82C-8.793,77.833 -5.027,78.08 -0.92,78.56C3.18,79.04 5.917,77.99 7.29,75.41C8.663,72.83 9.363,69.73 9.39,66.11C9.417,62.49 9.27,59.037 8.95,55.75C8.637,52.47 6.92,50.483 3.8,49.79C0.68,49.103 -2.34,48.577 -5.26,48.21C-8.187,47.843 -11.193,47.29 -14.28,46.55C-17.367,45.81 -20.72,44.307 -24.34,42.04C-27.96,39.773 -30.88,37.283 -33.1,34.57C-35.327,31.85 -36.793,29 -37.5,26.02C-38.207,23.04 -38.53,19.85 -38.47,16.45C-38.41,13.05 -37.717,9.627 -36.39,6.18C-35.07,2.733 -33.313,-0.14 -31.12,-2.44C-28.933,-4.747 -26.203,-6.733 -22.93,-8.4C-19.657,-10.067 -16.047,-10.957 -12.1,-11.07C-8.153,-11.183 -5.033,-11.11 -2.74,-10.85C-0.453,-10.597 1.107,-10.39 1.94,-10.23C2.767,-10.077 3.563,-9.823 4.33,-9.47C5.097,-9.117 5.81,-8.68 6.47,-8.16C7.13,-7.633 7.72,-7.037 8.24,-6.37C8.753,-5.703 9.18,-4.983 9.52,-4.21C9.867,-3.443 10.113,-2.643 10.26,-1.81C10.407,-0.977 10.45,-0.143 10.39,0.69C10.337,1.53 10.18,2.353 9.92,3.16C9.667,3.96 9.32,4.72 8.88,5.44C8.44,6.16 7.92,6.817 7.32,7.41C6.72,8.003 6.057,8.517 5.33,8.95C4.603,9.377 3.837,9.713 3.03,9.96C2.223,10.207 1.4,10.353 0.56,10.4C-0.273,10.447 -0.69,10.47 -0.69,10.47Z" style="fill:rgb(244,63,94);fill-rule:nonzero;"/>
        </g>
        <g transform="matrix(0.999826,-0.018628,0.018628,0.999826,294.670363,109.479018)">
            <path d="M10.35,-0.73C10.35,-0.73 10.447,1.417 10.64,5.71C10.84,10.01 11.103,13.813 11.43,17.12C11.757,20.433 12.3,25.077 13.06,31.05C13.813,37.023 14.323,42.673 14.59,48C14.857,53.333 15.137,58.37 15.43,63.11C15.723,67.85 16.097,72.263 16.55,76.35C17.01,80.437 17.437,83.97 17.83,86.95C18.23,89.923 18.903,92.547 19.85,94.82C20.79,97.087 21.403,98.717 21.69,99.71C21.97,100.71 22.127,101.723 22.16,102.75C22.193,103.783 22.103,104.807 21.89,105.82C21.677,106.833 21.347,107.803 20.9,108.73C20.453,109.663 19.9,110.53 19.24,111.33C18.58,112.123 17.833,112.827 17,113.44C16.173,114.06 15.283,114.57 14.33,114.97C13.377,115.363 12.39,115.64 11.37,115.8C10.35,115.96 9.323,115.997 8.29,115.91C7.263,115.817 6.26,115.603 5.28,115.27C4.3,114.937 3.377,114.493 2.51,113.94C1.637,113.38 0.847,112.723 0.14,111.97C-0.567,111.223 -1.177,110.4 -1.69,109.5C-2.197,108.6 -2.6,107.29 -2.9,105.57C-3.193,103.843 -3.537,102.313 -3.93,100.98C-4.323,99.647 -4.493,98.283 -4.44,96.89C-4.387,95.497 -4.113,94.15 -3.62,92.85C-3.12,91.55 -2.43,90.363 -1.55,89.29C-0.663,88.217 0.367,87.31 1.54,86.57C2.72,85.837 3.99,85.31 5.35,84.99C6.703,84.67 8.073,84.573 9.46,84.7C10.847,84.827 12.177,85.173 13.45,85.74C14.717,86.307 15.863,87.06 16.89,88C17.917,88.94 18.767,90.02 19.44,91.24C20.107,92.46 20.563,93.757 20.81,95.13C21.057,96.497 21.08,97.87 20.88,99.25C20.673,100.623 20.253,101.93 19.62,103.17C18.987,104.41 18.173,105.517 17.18,106.49C16.187,107.463 15.06,108.253 13.8,108.86C12.547,109.46 11.23,109.847 9.85,110.02C8.47,110.193 7.097,110.14 5.73,109.86C4.37,109.58 3.087,109.093 1.88,108.4C0.68,107.7 -0.377,106.827 -1.29,105.78C-2.21,104.733 -2.937,103.567 -3.47,102.28C-4.003,100.993 -4.32,99.657 -4.42,98.27C-4.513,96.877 -4.387,95.507 -4.04,94.16C-3.687,92.813 -3.127,91.56 -2.36,90.4C-1.6,89.233 -0.677,88.22 0.41,87.36C1.51,86.5 2.717,85.84 4.03,85.38C5.337,84.913 6.687,84.67 8.08,84.65C9.473,84.623 10.833,84.823 12.16,85.25C13.487,85.677 14.71,86.303 15.83,87.13C16.95,87.95 17.91,88.93 18.71,90.07C19.51,91.21 19.91,91.78 19.91,91.78C19.91,91.78 20.133,92.853 20.58,95C21.033,97.147 21.403,98.717 21.69,99.71C21.97,100.703 22.127,101.717 22.16,102.75C22.193,103.783 22.103,104.807 21.89,105.82C21.677,106.833 21.347,107.803 20.9,108.73C20.453,109.663 19.9,110.527 19.24,111.32C18.58,112.12 17.837,112.827 17.01,113.44C16.177,114.06 15.283,114.57 14.33,114.97C13.377,115.363 12.39,115.64 11.37,115.8C10.35,115.96 9.323,115.997 8.29,115.91C7.263,115.817 6.26,115.603 5.28,115.27C4.3,114.937 3.377,114.493 2.51,113.94C1.637,113.38 0.847,112.727 0.14,111.98C-0.567,111.227 -1.177,110.4 -1.69,109.5C-2.197,108.607 -2.653,107.217 -3.06,105.33C-3.46,103.443 -4.05,100.923 -4.83,97.77C-5.61,94.617 -6.073,91.48 -6.22,88.36C-6.373,85.24 -6.54,81.667 -6.72,77.64C-6.893,73.613 -7.04,70.17 -7.16,67.31C-7.28,64.45 -7.293,60.517 -7.2,55.51C-7.113,50.503 -7.1,45.553 -7.16,40.66C-7.22,35.767 -7.44,31.733 -7.82,28.56C-8.193,25.393 -8.5,22.107 -8.74,18.7C-8.98,15.293 -9.307,11.447 -9.72,7.16C-10.14,2.873 -10.327,0.317 -10.28,-0.51C-10.24,-1.337 -10.1,-2.15 -9.86,-2.95C-9.62,-3.75 -9.29,-4.51 -8.87,-5.23C-8.443,-5.95 -7.94,-6.607 -7.36,-7.2C-6.773,-7.793 -6.127,-8.31 -5.42,-8.75C-4.713,-9.19 -3.963,-9.54 -3.17,-9.8C-2.377,-10.053 -1.563,-10.21 -0.73,-10.27C0.097,-10.33 0.92,-10.29 1.74,-10.15C2.56,-10.01 3.353,-9.77 4.12,-9.43C4.887,-9.097 5.6,-8.677 6.26,-8.17C6.92,-7.663 7.513,-7.087 8.04,-6.44C8.56,-5.787 8.993,-5.08 9.34,-4.32C9.693,-3.567 9.95,-2.78 10.11,-1.96C10.27,-1.14 10.35,-0.73 10.35,-0.73Z" style="fill:rgb(244,63,94);fill-rule:nonzero;"/>
        </g>
        <g transform="matrix(0.999826,-0.018628,0.018628,0.999826,304.512044,165.305375)">
            <path d="M-3.57,-10.01C-3.57,-10.01 -2.513,-10.437 -0.4,-11.29C1.707,-12.15 4.25,-13.32 7.23,-14.8C10.21,-16.28 13.333,-17.843 16.6,-19.49C19.86,-21.143 23.093,-22.437 26.3,-23.37C29.5,-24.31 32.893,-25.043 36.48,-25.57C40.06,-26.097 44.08,-25.42 48.54,-23.54C52.993,-21.653 56.417,-18.897 58.81,-15.27C61.203,-11.65 63.043,-8.507 64.33,-5.84C65.623,-3.173 66.733,-0.147 67.66,3.24C68.587,6.633 69.29,9.897 69.77,13.03C70.25,16.163 70.557,19.18 70.69,22.08C70.817,24.987 70.587,27.91 70,30.85C69.42,33.79 68.57,36.51 67.45,39.01C66.337,41.503 65.313,43.363 64.38,44.59C63.447,45.81 62.343,46.85 61.07,47.71C59.79,48.57 58.41,49.203 56.93,49.61C55.443,50.023 53.933,50.183 52.4,50.09C50.86,50.003 49.377,49.673 47.95,49.1C46.523,48.527 45.227,47.743 44.06,46.75C42.887,45.75 41.907,44.59 41.12,43.27C40.327,41.95 39.767,40.537 39.44,39.03C39.113,37.523 39.037,36.007 39.21,34.48C39.377,32.953 39.787,31.493 40.44,30.1C41.087,28.7 41.94,27.443 43,26.33C44.067,25.217 45.28,24.303 46.64,23.59C48,22.87 49.44,22.387 50.96,22.14C52.48,21.9 53.997,21.907 55.51,22.16C57.03,22.407 58.467,22.893 59.82,23.62C61.18,24.347 62.387,25.27 63.44,26.39C64.5,27.51 65.35,28.767 65.99,30.16C66.63,31.56 67.033,33.027 67.2,34.56C67.36,36.087 67.273,37.6 66.94,39.1C66.6,40.607 66.033,42.017 65.24,43.33C64.44,44.65 63.453,45.803 62.28,46.79C61.107,47.783 59.803,48.563 58.37,49.13C56.943,49.697 55.46,50.02 53.92,50.1C52.387,50.18 50.877,50.01 49.39,49.59C47.91,49.177 46.537,48.537 45.27,47.67C43.997,46.803 42.897,45.757 41.97,44.53C41.043,43.303 40.337,41.96 39.85,40.5C39.357,39.04 39.113,37.54 39.12,36C39.127,34.46 39.377,32.963 39.87,31.51C40.363,30.05 40.61,29.32 40.61,29.32C40.61,29.327 40.963,29.02 41.67,28.4C42.377,27.78 42.753,25.907 42.8,22.78C42.853,19.647 42.667,16.54 42.24,13.46C41.82,10.38 41.513,7.24 41.32,4.04C41.127,0.84 39.427,-0.613 36.22,-0.32C33.007,-0.033 29.543,0.8 25.83,2.18C22.123,3.56 18.577,4.873 15.19,6.12C11.803,7.36 9.02,8.317 6.84,8.99C4.66,9.67 3.153,10.103 2.32,10.29C1.487,10.477 0.647,10.563 -0.2,10.55C-1.053,10.53 -1.893,10.41 -2.72,10.19C-3.547,9.97 -4.333,9.653 -5.08,9.24C-5.827,8.833 -6.517,8.34 -7.15,7.76C-7.777,7.18 -8.327,6.533 -8.8,5.82C-9.267,5.107 -9.643,4.347 -9.93,3.54C-10.223,2.74 -10.41,1.913 -10.49,1.06C-10.577,0.22 -10.563,-0.623 -10.45,-1.47C-10.33,-2.317 -10.11,-3.137 -9.79,-3.93C-9.47,-4.723 -9.06,-5.467 -8.56,-6.16C-8.06,-6.853 -7.487,-7.477 -6.84,-8.03C-6.187,-8.583 -5.48,-9.05 -4.72,-9.43C-3.953,-9.817 -3.57,-10.01 -3.57,-10.01Z" style="fill:rgb(244,63,94);fill-rule:nonzero;"/>
        </g>
        <g transform="matrix(0.982528,0.186115,-0.186115,0.982528,126.819771,112.600095)">
            <path d="M10.35,-0.73C10.35,-0.73 10.447,1.417 10.64,5.71C10.84,10.01 11.103,13.813 11.43,17.12C11.757,20.433 12.3,25.077 13.06,31.05C13.813,37.023 14.323,42.673 14.59,48C14.857,53.333 15.137,58.37 15.43,63.11C15.723,67.85 16.097,72.263 16.55,76.35C17.01,80.437 17.437,83.97 17.83,86.95C18.23,89.923 18.903,92.547 19.85,94.82C20.79,97.087 21.403,98.717 21.69,99.71C21.97,100.71 22.127,101.723 22.16,102.75C22.193,103.783 22.103,104.807 21.89,105.82C21.677,106.833 21.347,107.803 20.9,108.73C20.453,109.663 19.9,110.53 19.24,111.33C18.58,112.123 17.833,112.827 17,113.44C16.173,114.06 15.283,114.57 14.33,114.97C13.377,115.363 12.39,115.64 11.37,115.8C10.35,115.96 9.323,115.997 8.29,115.91C7.263,115.817 6.26,115.603 5.28,115.27C4.3,114.937 3.377,114.493 2.51,113.94C1.637,113.38 0.847,112.723 0.14,111.97C-0.567,111.223 -1.177,110.4 -1.69,109.5C-2.197,108.6 -2.6,107.29 -2.9,105.57C-3.193,103.843 -3.537,102.313 -3.93,100.98C-4.323,99.647 -4.493,98.283 -4.44,96.89C-4.387,95.497 -4.113,94.15 -3.62,92.85C-3.12,91.55 -2.43,90.363 -1.55,89.29C-0.663,88.217 0.367,87.31 1.54,86.57C2.72,85.837 3.99,85.31 5.35,84.99C6.703,84.67 8.073,84.573 9.46,84.7C10.847,84.827 12.177,85.173 13.45,85.74C14.717,86.307 15.863,87.06 16.89,88C17.917,88.94 18.767,90.02 19.44,91.24C20.107,92.46 20.563,93.757 20.81,95.13C21.057,96.497 21.08,97.87 20.88,99.25C20.673,100.623 20.253,101.93 19.62,103.17C18.987,104.41 18.173,105.517 17.18,106.49C16.187,107.463 15.06,108.253 13.8,108.86C12.547,109.46 11.23,109.847 9.85,110.02C8.47,110.193 7.097,110.14 5.73,109.86C4.37,109.58 3.087,109.093 1.88,108.4C0.68,107.7 -0.377,106.827 -1.29,105.78C-2.21,104.733 -2.937,103.567 -3.47,102.28C-4.003,100.993 -4.32,99.657 -4.42,98.27C-4.513,96.877 -4.387,95.507 -4.04,94.16C-3.687,92.813 -3.127,91.56 -2.36,90.4C-1.6,89.233 -0.677,88.22 0.41,87.36C1.51,86.5 2.717,85.84 4.03,85.38C5.337,84.913 6.687,84.67 8.08,84.65C9.473,84.623 10.833,84.823 12.16,85.25C13.487,85.677 14.71,86.303 15.83,87.13C16.95,87.95 17.91,88.93 18.71,90.07C19.51,91.21 19.91,91.78 19.91,91.78C19.91,91.78 20.133,92.853 20.58,95C21.033,97.147 21.403,98.717 21.69,99.71C21.97,100.703 22.127,101.717 22.16,102.75C22.193,103.783 22.103,104.807 21.89,105.82C21.677,106.833 21.347,107.803 20.9,108.73C20.453,109.663 19.9,110.527 19.24,111.32C18.58,112.12 17.837,112.827 17.01,113.44C16.177,114.06 15.283,114.57 14.33,114.97C13.377,115.363 12.39,115.64 11.37,115.8C10.35,115.96 9.323,115.997 8.29,115.91C7.263,115.817 6.26,115.603 5.28,115.27C4.3,114.937 3.377,114.493 2.51,113.94C1.637,113.38 0.847,112.727 0.14,111.98C-0.567,111.227 -1.177,110.4 -1.69,109.5C-2.197,108.607 -2.653,107.217 -3.06,105.33C-3.46,103.443 -4.05,100.923 -4.83,97.77C-5.61,94.617 -6.073,91.48 -6.22,88.36C-6.373,85.24 -6.54,81.667 -6.72,77.64C-6.893,73.613 -7.04,70.17 -7.16,67.31C-7.28,64.45 -7.293,60.517 -7.2,55.51C-7.113,50.503 -7.1,45.553 -7.16,40.66C-7.22,35.767 -7.44,31.733 -7.82,28.56C-8.193,25.393 -8.5,22.107 -8.74,18.7C-8.98,15.293 -9.307,11.447 -9.72,7.16C-10.14,2.873 -10.327,0.317 -10.28,-0.51C-10.24,-1.337 -10.1,-2.15 -9.86,-2.95C-9.62,-3.75 -9.29,-4.51 -8.87,-5.23C-8.443,-5.95 -7.94,-6.607 -7.36,-7.2C-6.773,-7.793 -6.127,-8.31 -5.42,-8.75C-4.713,-9.19 -3.963,-9.54 -3.17,-9.8C-2.377,-10.053 -1.563,-10.21 -0.73,-10.27C0.097,-10.33 0.92,-10.29 1.74,-10.15C2.56,-10.01 3.353,-9.77 4.12,-9.43C4.887,-9.097 5.6,-8.677 6.26,-8.17C6.92,-7.663 7.513,-7.087 8.04,-6.44C8.56,-5.787 8.993,-5.08 9.34,-4.32C9.693,-3.567 9.95,-2.78 10.11,-1.96C10.27,-1.14 10.35,-0.73 10.35,-0.73Z" style="fill:rgb(244,63,94);fill-rule:nonzero;"/>
        </g>
        <g transform="matrix(0.982528,0.186115,-0.186115,0.982528,125.043633,169.259482)">
            <path d="M-3.57,-10.01C-3.57,-10.01 -2.513,-10.437 -0.4,-11.29C1.707,-12.15 4.25,-13.32 7.23,-14.8C10.21,-16.28 13.333,-17.843 16.6,-19.49C19.86,-21.143 23.093,-22.437 26.3,-23.37C29.5,-24.31 32.893,-25.043 36.48,-25.57C40.06,-26.097 44.08,-25.42 48.54,-23.54C52.993,-21.653 56.417,-18.897 58.81,-15.27C61.203,-11.65 63.043,-8.507 64.33,-5.84C65.623,-3.173 66.733,-0.147 67.66,3.24C68.587,6.633 69.29,9.897 69.77,13.03C70.25,16.163 70.557,19.18 70.69,22.08C70.817,24.987 70.587,27.91 70,30.85C69.42,33.79 68.57,36.51 67.45,39.01C66.337,41.503 65.313,43.363 64.38,44.59C63.447,45.81 62.343,46.85 61.07,47.71C59.79,48.57 58.41,49.203 56.93,49.61C55.443,50.023 53.933,50.183 52.4,50.09C50.86,50.003 49.377,49.673 47.95,49.1C46.523,48.527 45.227,47.743 44.06,46.75C42.887,45.75 41.907,44.59 41.12,43.27C40.327,41.95 39.767,40.537 39.44,39.03C39.113,37.523 39.037,36.007 39.21,34.48C39.377,32.953 39.787,31.493 40.44,30.1C41.087,28.7 41.94,27.443 43,26.33C44.067,25.217 45.28,24.303 46.64,23.59C48,22.87 49.44,22.387 50.96,22.14C52.48,21.9 53.997,21.907 55.51,22.16C57.03,22.407 58.467,22.893 59.82,23.62C61.18,24.347 62.387,25.27 63.44,26.39C64.5,27.51 65.35,28.767 65.99,30.16C66.63,31.56 67.033,33.027 67.2,34.56C67.36,36.087 67.273,37.6 66.94,39.1C66.6,40.607 66.033,42.017 65.24,43.33C64.44,44.65 63.453,45.803 62.28,46.79C61.107,47.783 59.803,48.563 58.37,49.13C56.943,49.697 55.46,50.02 53.92,50.1C52.387,50.18 50.877,50.01 49.39,49.59C47.91,49.177 46.537,48.537 45.27,47.67C43.997,46.803 42.897,45.757 41.97,44.53C41.043,43.303 40.337,41.96 39.85,40.5C39.357,39.04 39.113,37.54 39.12,36C39.127,34.46 39.377,32.963 39.87,31.51C40.363,30.05 40.61,29.32 40.61,29.32C40.61,29.327 40.963,29.02 41.67,28.4C42.377,27.78 42.753,25.907 42.8,22.78C42.853,19.647 42.667,16.54 42.24,13.46C41.82,10.38 41.513,7.24 41.32,4.04C41.127,0.84 39.427,-0.613 36.22,-0.32C33.007,-0.033 29.543,0.8 25.83,2.18C22.123,3.56 18.577,4.873 15.19,6.12C11.803,7.36 9.02,8.317 6.84,8.99C4.66,9.67 3.153,10.103 2.32,10.29C1.487,10.477 0.647,10.563 -0.2,10.55C-1.053,10.53 -1.893,10.41 -2.72,10.19C-3.547,9.97 -4.333,9.653 -5.08,9.24C-5.827,8.833 -6.517,8.34 -7.15,7.76C-7.777,7.18 -8.327,6.533 -8.8,5.82C-9.267,5.107 -9.643,4.347 -9.93,3.54C-10.223,2.74 -10.41,1.913 -10.49,1.06C-10.577,0.22 -10.563,-0.623 -10.45,-1.47C-10.33,-2.317 -10.11,-3.137 -9.79,-3.93C-9.47,-4.723 -9.06,-5.467 -8.56,-6.16C-8.06,-6.853 -7.487,-7.477 -6.84,-8.03C-6.187,-8.583 -5.48,-9.05 -4.72,-9.43C-3.953,-9.817 -3.57,-10.01 -3.57,-10.01Z" style="fill:rgb(244,63,94);fill-rule:nonzero;"/>
        </g>
    </g>
    <g id="TOP">
        <g transform="matrix(0.998196,0.060045,-0.060045,0.998196,265.099994,20.465008)">
            <path d="M9.92,-3.96C9.92,-3.96 10.54,-2.433 11.78,0.62C13.027,3.68 14.093,6.67 14.98,9.59C15.86,12.503 16.803,16.413 17.81,21.32C18.823,26.233 19.733,30.76 20.54,34.9C21.353,39.04 21.89,42.973 22.15,46.7C22.417,50.42 22.787,53.943 23.26,57.27C23.733,60.59 24.207,63.443 24.68,65.83C25.153,68.21 25.363,69.92 25.31,70.96C25.257,72.007 25.083,73.03 24.79,74.03C24.49,75.03 24.073,75.98 23.54,76.88C23.013,77.78 22.383,78.603 21.65,79.35C20.923,80.103 20.117,80.753 19.23,81.3C18.337,81.853 17.393,82.29 16.4,82.61C15.407,82.937 14.39,83.137 13.35,83.21C12.31,83.283 11.273,83.233 10.24,83.06C9.213,82.88 8.22,82.583 7.26,82.17C6.3,81.75 5.407,81.223 4.58,80.59C3.747,79.957 3.003,79.233 2.35,78.42C1.697,77.6 1.15,76.717 0.71,75.77C0.27,74.823 -0.047,73.837 -0.24,72.81C-0.44,71.783 -0.527,68.98 -0.5,64.4C-0.473,59.82 -0.463,55.427 -0.47,51.22C-0.47,47.013 -0.297,43.46 0.05,40.56C0.41,37.667 1.003,34.227 1.83,30.24C2.65,26.253 4.103,22.06 6.19,17.66C8.277,13.26 10.57,9.22 13.07,5.54C15.577,1.86 18.137,-1.477 20.75,-4.47C23.363,-7.47 26.093,-9.94 28.94,-11.88C31.793,-13.82 35.327,-14.96 39.54,-15.3C43.76,-15.633 47.953,-13.89 52.12,-10.07C56.287,-6.25 59.413,-2.267 61.5,1.88C63.587,6.033 65.39,10.463 66.91,15.17C68.423,19.883 69.487,23.923 70.1,27.29C70.713,30.657 71.207,34.09 71.58,37.59C71.953,41.09 72.28,44.28 72.56,47.16C72.847,50.04 73.053,52.967 73.18,55.94C73.313,58.913 73.38,60.433 73.38,60.5C73.387,60.56 73.323,61.157 73.19,62.29C73.057,63.423 72.79,64.523 72.39,65.59C71.99,66.657 71.47,67.663 70.83,68.61C70.19,69.55 69.443,70.4 68.59,71.16C67.737,71.92 66.807,72.567 65.8,73.1C64.793,73.64 63.737,74.047 62.63,74.32C61.523,74.6 60.4,74.743 59.26,74.75C58.12,74.757 56.997,74.627 55.89,74.36C54.777,74.093 53.717,73.697 52.71,73.17C51.697,72.643 50.76,72.003 49.9,71.25C49.04,70.503 48.283,69.66 47.63,68.72C46.983,67.787 46.453,66.787 46.04,65.72C45.633,64.653 45.357,63.557 45.21,62.43C45.07,61.297 45.003,58.283 45.01,53.39C45.017,48.503 45.073,43.59 45.18,38.65C45.28,33.71 45.44,29.797 45.66,26.91C45.873,24.017 46.31,21.04 46.97,17.98C47.63,14.927 48.643,11.053 50.01,6.36C51.383,1.673 52.987,-2.647 54.82,-6.6C56.66,-10.553 58.637,-14.033 60.75,-17.04C62.87,-20.047 65.33,-22.5 68.13,-24.4C70.93,-26.3 74.117,-27.493 77.69,-27.98C81.263,-28.467 84.913,-27.993 88.64,-26.56C92.373,-25.12 95.853,-23.22 99.08,-20.86C102.3,-18.5 105.867,-15.287 109.78,-11.22C113.693,-7.16 117.14,-3.16 120.12,0.78C123.1,4.733 125.733,9.027 128.02,13.66C130.307,18.287 132.127,22.05 133.48,24.95C134.833,27.857 135.883,30.827 136.63,33.86C137.377,36.893 137.897,40.077 138.19,43.41C138.477,46.743 138.137,51.5 137.17,57.68C136.21,63.86 135.203,67.497 134.15,68.59C133.103,69.683 131.907,70.58 130.56,71.28C129.22,71.987 127.8,72.457 126.3,72.69C124.8,72.93 123.303,72.92 121.81,72.66C120.317,72.407 118.9,71.92 117.56,71.2C116.227,70.487 115.043,69.573 114.01,68.46C112.97,67.353 112.137,66.11 111.51,64.73C110.883,63.35 110.493,61.907 110.34,60.4C110.18,58.893 110.27,57.4 110.61,55.92C110.943,54.44 111.503,53.053 112.29,51.76C113.083,50.467 114.06,49.33 115.22,48.35C116.387,47.377 117.673,46.613 119.08,46.06C120.493,45.507 121.96,45.197 123.48,45.13C124.993,45.057 126.48,45.227 127.94,45.64C129.393,46.053 130.747,46.69 132,47.55C133.247,48.41 134.327,49.447 135.24,50.66C136.147,51.873 136.84,53.2 137.32,54.64C137.793,56.08 138.023,57.557 138.01,59.07C138.003,60.59 137.753,62.067 137.26,63.5C136.767,64.933 136.057,66.25 135.13,67.45C134.203,68.657 133.11,69.68 131.85,70.52C130.59,71.36 129.23,71.98 127.77,72.38C126.303,72.773 124.813,72.927 123.3,72.84C121.787,72.747 120.327,72.413 118.92,71.84C117.513,71.273 116.237,70.493 115.09,69.5C113.937,68.513 112.973,67.367 112.2,66.06C111.427,64.76 110.883,63.367 110.57,61.88C110.25,60.4 110.177,58.907 110.35,57.4C110.53,55.893 110.94,54.453 111.58,53.08C112.227,51.707 112.55,51.02 112.55,51.02C112.55,51.02 112.253,50.74 111.66,50.18C111.06,49.62 110.61,47.597 110.31,44.11C110.01,40.623 109.273,37.567 108.1,34.94C106.927,32.307 105.697,29.597 104.41,26.81C103.117,24.023 101.197,21.01 98.65,17.77C96.097,14.53 93.553,11.61 91.02,9.01C88.487,6.41 86.557,3.82 85.23,1.24C83.903,-1.327 82.313,-0.84 80.46,2.7C78.607,6.247 77.15,9.91 76.09,13.69C75.037,17.47 74.267,21.34 73.78,25.3C73.3,29.267 73.11,33.717 73.21,38.65C73.317,43.59 73.373,48.48 73.38,53.32C73.387,58.167 73.323,61.157 73.19,62.29C73.057,63.423 72.79,64.523 72.39,65.59C71.997,66.657 71.477,67.663 70.83,68.61C70.19,69.55 69.443,70.4 68.59,71.16C67.743,71.92 66.813,72.567 65.8,73.1C64.793,73.64 63.737,74.047 62.63,74.32C61.53,74.6 60.407,74.743 59.26,74.75C58.12,74.757 56.997,74.627 55.89,74.36C54.783,74.093 53.723,73.697 52.71,73.17C51.697,72.643 50.76,72.003 49.9,71.25C49.04,70.503 48.287,69.66 47.64,68.72C46.987,67.787 46.453,66.787 46.04,65.72C45.633,64.66 45.357,63.563 45.21,62.43C45.07,61.297 45.007,60.467 45.02,59.94C45.033,59.407 45.023,57.62 44.99,54.58C44.957,51.533 44.79,48.07 44.49,44.19C44.19,40.303 43.627,36.097 42.8,31.57C41.973,27.043 41.14,23.18 40.3,19.98C39.467,16.78 38.03,16.62 35.99,19.5C33.95,22.38 32.107,25.603 30.46,29.17C28.813,32.737 27.67,36.257 27.03,39.73C26.39,43.21 26.063,47.06 26.05,51.28C26.043,55.507 25.93,59.583 25.71,63.51C25.497,67.43 25.363,69.913 25.31,70.96C25.257,72.007 25.083,73.03 24.79,74.03C24.49,75.03 24.073,75.98 23.54,76.88C23.013,77.78 22.383,78.603 21.65,79.35C20.923,80.097 20.117,80.747 19.23,81.3C18.343,81.853 17.4,82.29 16.4,82.61C15.407,82.937 14.39,83.137 13.35,83.21C12.31,83.283 11.273,83.233 10.24,83.06C9.213,82.887 8.22,82.59 7.26,82.17C6.3,81.75 5.407,81.223 4.58,80.59C3.747,79.957 3.003,79.233 2.35,78.42C1.697,77.6 1.15,76.717 0.71,75.77C0.27,74.823 -0.047,73.837 -0.24,72.81C-0.44,71.783 -0.61,70.587 -0.75,69.22C-0.883,67.847 -1.13,65.61 -1.49,62.51C-1.843,59.417 -1.987,56.297 -1.92,53.15C-1.847,50.003 -1.84,46.907 -1.9,43.86C-1.953,40.813 -2.313,37.097 -2.98,32.71C-3.653,28.317 -4.373,23.963 -5.14,19.65C-5.907,15.337 -6.893,11.643 -8.1,8.57C-9.313,5.497 -10.03,3.547 -10.25,2.72C-10.47,1.887 -10.587,1.043 -10.6,0.19C-10.613,-0.663 -10.527,-1.51 -10.34,-2.35C-10.147,-3.183 -9.857,-3.983 -9.47,-4.75C-9.09,-5.523 -8.62,-6.233 -8.06,-6.88C-7.5,-7.533 -6.873,-8.11 -6.18,-8.61C-5.48,-9.117 -4.73,-9.527 -3.93,-9.84C-3.137,-10.16 -2.313,-10.38 -1.46,-10.5C-0.613,-10.62 0.233,-10.637 1.08,-10.55C1.94,-10.457 2.773,-10.267 3.58,-9.98C4.387,-9.687 5.147,-9.303 5.86,-8.83C6.58,-8.357 7.23,-7.803 7.81,-7.17C8.39,-6.537 8.887,-5.843 9.3,-5.09C9.713,-4.337 9.92,-3.96 9.92,-3.96Z" style="fill:rgb(255,68,115);fill-rule:nonzero;"/>
        </g>
        <g transform="matrix(0.998196,0.060045,-0.060045,0.998196,131.068515,23.622757)">
            <path d="M10.35,-2.58C10.35,-2.58 10.75,-1.057 11.55,1.99C12.35,5.05 13.047,8.13 13.64,11.23C14.233,14.33 14.987,18.26 15.9,23.02C16.813,27.773 17.42,32.133 17.72,36.1C18.02,40.067 18.247,43.727 18.4,47.08C18.553,50.427 18.783,53.563 19.09,56.49C19.39,59.41 19.48,61.377 19.36,62.39C19.24,63.397 19,64.38 18.64,65.34C18.28,66.293 17.81,67.19 17.23,68.03C16.65,68.87 15.98,69.627 15.22,70.3C14.46,70.98 13.627,71.557 12.72,72.03C11.82,72.503 10.877,72.863 9.89,73.11C8.897,73.357 7.89,73.48 6.87,73.48C5.85,73.48 4.847,73.36 3.86,73.12C2.867,72.88 1.92,72.523 1.02,72.05C0.12,71.577 -0.713,71.003 -1.48,70.33C-2.24,69.65 -2.91,68.89 -3.49,68.05C-4.07,67.217 -4.543,66.323 -4.91,65.37C-5.27,64.417 -5.513,63.433 -5.64,62.42C-5.76,61.407 -5.693,59.263 -5.44,55.99C-5.187,52.71 -4.757,48.577 -4.15,43.59C-3.543,38.61 -2.623,33.093 -1.39,27.04C-0.163,20.987 0.873,16.5 1.72,13.58C2.567,10.667 3.69,7.75 5.09,4.83C6.497,1.91 8.72,-1.547 11.76,-5.54C14.8,-9.547 17.913,-12.95 21.1,-15.75C24.28,-18.55 27.79,-20.773 31.63,-22.42C35.47,-24.067 38.81,-24.503 41.65,-23.73C44.49,-22.957 47.217,-21.72 49.83,-20.02C52.45,-18.32 54.597,-16.16 56.27,-13.54C57.937,-10.92 59.537,-7.953 61.07,-4.64C62.597,-1.333 64.107,2.177 65.6,5.89C67.093,9.61 68.557,13.753 69.99,18.32C71.417,22.887 72.453,27.333 73.1,31.66C73.747,35.993 74.143,39.767 74.29,42.98C74.437,46.2 74.557,49.363 74.65,52.47C74.75,55.583 74.803,57.18 74.81,57.26C74.81,57.347 74.743,57.947 74.61,59.06C74.477,60.18 74.213,61.267 73.82,62.32C73.42,63.38 72.9,64.373 72.26,65.3C71.62,66.227 70.88,67.063 70.04,67.81C69.2,68.563 68.28,69.2 67.28,69.72C66.287,70.247 65.243,70.647 64.15,70.92C63.057,71.187 61.947,71.323 60.82,71.33C59.693,71.33 58.58,71.197 57.48,70.93C56.387,70.663 55.343,70.267 54.35,69.74C53.35,69.22 52.427,68.587 51.58,67.84C50.733,67.093 49.99,66.257 49.35,65.33C48.71,64.403 48.19,63.413 47.79,62.36C47.39,61.313 47.12,60.23 46.98,59.11C46.84,57.99 46.38,54.923 45.6,49.91C44.82,44.897 44.517,40.05 44.69,35.37C44.857,30.683 45.563,25.71 46.81,20.45C48.057,15.19 49.937,10.303 52.45,5.79C54.963,1.283 57.61,-2.58 60.39,-5.8C63.163,-9.013 66.183,-11.807 69.45,-14.18C72.717,-16.553 76.34,-18.357 80.32,-19.59C84.3,-20.823 88.49,-21.44 92.89,-21.44C97.29,-21.433 100.88,-20.807 103.66,-19.56C106.447,-18.313 108.933,-16.657 111.12,-14.59C113.307,-12.523 115.623,-9.457 118.07,-5.39C120.517,-1.337 122.223,2.237 123.19,5.33C124.15,8.417 125.193,13.1 126.32,19.38C127.447,25.66 128.21,31.09 128.61,35.67C129.017,40.257 129.27,44.163 129.37,47.39C129.477,50.623 129.01,54.35 127.97,58.57C126.93,62.79 124.457,66.36 120.55,69.28C116.637,72.2 113.937,73.627 112.45,73.56C110.97,73.493 109.533,73.193 108.14,72.66C106.753,72.12 105.49,71.377 104.35,70.43C103.203,69.477 102.24,68.367 101.46,67.1C100.68,65.833 100.123,64.473 99.79,63.02C99.457,61.573 99.363,60.11 99.51,58.63C99.657,57.15 100.033,55.73 100.64,54.37C101.253,53.017 102.067,51.793 103.08,50.7C104.093,49.613 105.253,48.713 106.56,48C107.867,47.293 109.253,46.813 110.72,46.56C112.18,46.3 113.647,46.283 115.12,46.51C116.587,46.737 117.983,47.193 119.31,47.88C120.63,48.56 121.807,49.437 122.84,50.51C123.873,51.577 124.71,52.783 125.35,54.13C125.983,55.47 126.39,56.88 126.57,58.36C126.743,59.833 126.677,61.3 126.37,62.76C126.07,64.213 125.543,65.58 124.79,66.86C124.03,68.147 123.09,69.277 121.97,70.25C120.843,71.223 119.593,71.993 118.22,72.56C116.84,73.12 115.41,73.45 113.93,73.55C112.443,73.643 110.98,73.497 109.54,73.11C108.107,72.73 106.77,72.13 105.53,71.31C104.29,70.483 103.213,69.483 102.3,68.31C101.387,67.137 100.687,65.847 100.2,64.44C99.713,63.033 99.46,61.587 99.44,60.1C99.427,58.613 99.65,57.163 100.11,55.75C100.57,54.337 101.247,53.033 102.14,51.84C103.027,50.647 104.08,49.627 105.3,48.78C106.527,47.927 107.853,47.297 109.28,46.89C110.713,46.477 111.427,46.27 111.42,46.27C111.42,46.27 109.913,47.33 106.9,49.45C103.887,51.577 102.37,51.167 102.35,48.22C102.33,45.28 102.18,42.063 101.9,38.57C101.62,35.077 101.167,31.873 100.54,28.96C99.92,26.047 99.083,22.733 98.03,19.02C96.983,15.307 94.8,12.393 91.48,10.28C88.153,8.167 85.33,8.217 83.01,10.43C80.683,12.65 78.547,15.6 76.6,19.28C74.647,22.967 73.48,26.673 73.1,30.4C72.727,34.133 72.52,37.787 72.48,41.36C72.447,44.94 72.827,48.507 73.62,52.06C74.413,55.613 74.743,57.947 74.61,59.06C74.477,60.18 74.213,61.267 73.82,62.32C73.42,63.373 72.9,64.367 72.26,65.3C71.62,66.227 70.88,67.063 70.04,67.81C69.2,68.557 68.28,69.193 67.28,69.72C66.287,70.247 65.243,70.647 64.15,70.92C63.057,71.187 61.947,71.323 60.82,71.33C59.693,71.33 58.583,71.197 57.49,70.93C56.39,70.663 55.343,70.267 54.35,69.74C53.35,69.22 52.427,68.587 51.58,67.84C50.74,67.093 49.997,66.257 49.35,65.33C48.71,64.41 48.19,63.423 47.79,62.37C47.39,61.317 47.12,60.23 46.98,59.11C46.84,57.99 46.773,57.39 46.78,57.31C46.78,57.223 46.81,55.71 46.87,52.77C46.93,49.823 46.9,46.41 46.78,42.53C46.66,38.65 46.287,35.173 45.66,32.1C45.027,29.02 43.95,25.547 42.43,21.68C40.91,17.807 39.907,13.647 39.42,9.2C38.94,4.753 37.627,3.58 35.48,5.68C33.327,7.787 31.4,10.037 29.7,12.43C28,14.823 26.503,18.603 25.21,23.77C23.91,28.937 23.107,32.963 22.8,35.85C22.487,38.743 22.067,42.187 21.54,46.18C21.013,50.18 20.55,53.627 20.15,56.52C19.743,59.42 19.48,61.373 19.36,62.38C19.24,63.393 19,64.377 18.64,65.33C18.28,66.283 17.81,67.18 17.23,68.02C16.65,68.86 15.98,69.62 15.22,70.3C14.46,70.98 13.627,71.557 12.72,72.03C11.82,72.503 10.877,72.863 9.89,73.11C8.897,73.357 7.89,73.48 6.87,73.48C5.85,73.48 4.847,73.36 3.86,73.12C2.867,72.88 1.92,72.523 1.02,72.05C0.12,71.577 -0.71,71.003 -1.47,70.33C-2.237,69.65 -2.91,68.893 -3.49,68.06C-4.07,67.22 -4.543,66.323 -4.91,65.37C-5.27,64.417 -5.513,63.433 -5.64,62.42C-5.76,61.407 -5.857,60.123 -5.93,58.57C-5.997,57.01 -5.977,54.707 -5.87,51.66C-5.763,48.613 -5.663,45.467 -5.57,42.22C-5.483,38.98 -5.477,35.68 -5.55,32.32C-5.623,28.967 -6.077,24.71 -6.91,19.55C-7.737,14.39 -8.517,10.273 -9.25,7.2C-9.983,4.12 -10.403,2.157 -10.51,1.31C-10.617,0.457 -10.62,-0.393 -10.52,-1.24C-10.42,-2.093 -10.22,-2.92 -9.92,-3.72C-9.613,-4.52 -9.22,-5.277 -8.74,-5.99C-8.253,-6.697 -7.69,-7.333 -7.05,-7.9C-6.41,-8.473 -5.71,-8.96 -4.95,-9.36C-4.19,-9.76 -3.393,-10.067 -2.56,-10.28C-1.733,-10.487 -0.89,-10.59 -0.03,-10.59C0.823,-10.597 1.667,-10.497 2.5,-10.29C3.333,-10.09 4.13,-9.79 4.89,-9.39C5.65,-8.997 6.353,-8.517 7,-7.95C7.64,-7.383 8.207,-6.747 8.7,-6.04C9.187,-5.34 9.583,-4.587 9.89,-3.78C10.197,-2.98 10.35,-2.58 10.35,-2.58Z" style="fill:rgb(255,68,115);fill-rule:nonzero;"/>
        </g>
        <g transform="matrix(0.998196,0.060045,-0.060045,0.998196,30.642543,14.376059)">
            <path d="M8.68,6.13C8.68,6.13 7.777,7.443 5.97,10.07C4.157,12.69 2.447,15.65 0.84,18.95C-0.767,22.243 -2.15,26.22 -3.31,30.88C-4.47,35.54 -5.117,39.527 -5.25,42.84C-5.39,46.153 -3.573,48.297 0.2,49.27C3.973,50.243 7.203,50.213 9.89,49.18C12.577,48.147 15.427,46.773 18.44,45.06C21.453,43.347 24.13,41.363 26.47,39.11C28.817,36.857 31.113,33.787 33.36,29.9C35.607,26.007 36.873,22.123 37.16,18.25C37.447,14.377 37.367,11 36.92,8.12C36.473,5.233 36.213,3.237 36.14,2.13C36.06,1.03 36.117,-0.063 36.31,-1.15C36.497,-2.237 36.813,-3.287 37.26,-4.3C37.707,-5.307 38.267,-6.25 38.94,-7.13C39.613,-8.003 40.383,-8.783 41.25,-9.47C42.117,-10.163 43.05,-10.74 44.05,-11.2C45.057,-11.66 46.103,-11.997 47.19,-12.21C48.277,-12.417 49.37,-12.49 50.47,-12.43C51.577,-12.37 52.66,-12.18 53.72,-11.86C54.773,-11.54 55.777,-11.1 56.73,-10.54C57.683,-9.973 58.553,-9.303 59.34,-8.53C60.127,-7.75 60.81,-6.89 61.39,-5.95C61.97,-5.01 62.43,-4.013 62.77,-2.96C63.103,-1.907 63.833,0.51 64.96,4.29C66.093,8.07 67.263,11.993 68.47,16.06C69.683,20.127 71.013,24.65 72.46,29.63C73.913,34.61 75.397,39.473 76.91,44.22C78.417,48.96 79.813,53.287 81.1,57.2C82.387,61.107 83.65,64.517 84.89,67.43C86.13,70.35 87.207,72.393 88.12,73.56C89.027,74.727 89.613,75.843 89.88,76.91C90.147,77.97 90.283,79.05 90.29,80.15C90.29,81.25 90.16,82.333 89.9,83.4C89.64,84.467 89.257,85.487 88.75,86.46C88.243,87.433 87.627,88.33 86.9,89.15C86.173,89.977 85.36,90.703 84.46,91.33C83.56,91.957 82.597,92.467 81.57,92.86C80.543,93.253 79.487,93.517 78.4,93.65C77.307,93.783 76.217,93.787 75.13,93.66C74.037,93.527 72.977,93.267 71.95,92.88C70.923,92.493 69.957,91.99 69.05,91.37C68.143,90.75 67.327,90.03 66.6,89.21C65.867,88.39 65.243,87.497 64.73,86.53C64.217,85.557 64.307,82.837 65,78.37C65.693,73.91 66.587,71.183 67.68,70.19C68.773,69.203 69.997,68.417 71.35,67.83C72.697,67.243 74.107,66.887 75.58,66.76C77.047,66.633 78.493,66.747 79.92,67.1C81.353,67.447 82.693,68.013 83.94,68.8C85.187,69.593 86.273,70.56 87.2,71.7C88.127,72.847 88.847,74.11 89.36,75.49C89.873,76.87 90.153,78.297 90.2,79.77C90.247,81.243 90.057,82.687 89.63,84.1C89.203,85.507 88.56,86.81 87.7,88.01C86.847,89.21 85.823,90.243 84.63,91.11C83.437,91.977 82.137,92.627 80.73,93.06C79.323,93.5 77.883,93.703 76.41,93.67C74.937,93.637 73.507,93.367 72.12,92.86C70.74,92.36 69.473,91.65 68.32,90.73C67.167,89.81 66.19,88.733 65.39,87.5C64.597,86.26 64.017,84.927 63.65,83.5C63.29,82.067 63.167,80.617 63.28,79.15C63.393,77.683 63.74,76.27 64.32,74.91C64.9,73.557 65.677,72.33 66.65,71.23C67.63,70.13 68.76,69.213 70.04,68.48C71.32,67.753 72.683,67.247 74.13,66.96C75.577,66.68 77.03,66.637 78.49,66.83C79.95,67.023 81.343,67.443 82.67,68.09C83.99,68.743 85.173,69.587 86.22,70.62C87.267,71.66 88.12,72.84 88.78,74.16C89.44,75.473 89.87,76.86 90.07,78.32C90.277,79.78 90.243,81.233 89.97,82.68C89.697,84.127 89.547,83.26 89.52,80.08C89.493,76.9 89.613,75.843 89.88,76.91C90.147,77.97 90.283,79.05 90.29,80.15C90.29,81.25 90.16,82.333 89.9,83.4C89.64,84.467 89.257,85.487 88.75,86.46C88.243,87.433 87.627,88.33 86.9,89.15C86.173,89.977 85.36,90.703 84.46,91.33C83.56,91.957 82.597,92.467 81.57,92.86C80.543,93.247 79.487,93.51 78.4,93.65C77.307,93.783 76.217,93.787 75.13,93.66C74.037,93.527 72.977,93.267 71.95,92.88C70.923,92.5 69.957,91.997 69.05,91.37C68.15,90.75 67.333,90.03 66.6,89.21C65.867,88.39 65.243,87.497 64.73,86.53C64.223,85.557 63.44,84.22 62.38,82.52C61.32,80.82 60.207,78.297 59.04,74.95C57.867,71.597 56.713,68.14 55.58,64.58C54.44,61.02 53.123,57.017 51.63,52.57C50.13,48.123 48.553,43.393 46.9,38.38C45.24,33.367 43.933,29.517 42.98,26.83C42.027,24.143 41.06,21.017 40.08,17.45C39.1,13.883 38.217,10.713 37.43,7.94C36.643,5.173 36.213,3.237 36.14,2.13C36.06,1.03 36.117,-0.06 36.31,-1.14C36.497,-2.233 36.813,-3.287 37.26,-4.3C37.707,-5.307 38.267,-6.25 38.94,-7.13C39.613,-8.003 40.383,-8.783 41.25,-9.47C42.117,-10.163 43.05,-10.74 44.05,-11.2C45.057,-11.66 46.103,-11.997 47.19,-12.21C48.277,-12.417 49.37,-12.49 50.47,-12.43C51.577,-12.37 52.66,-12.18 53.72,-11.86C54.773,-11.54 55.777,-11.1 56.73,-10.54C57.683,-9.973 58.553,-9.303 59.34,-8.53C60.127,-7.757 60.81,-6.897 61.39,-5.95C61.97,-5.01 62.427,-4.013 62.76,-2.96C63.1,-1.907 63.417,0.12 63.71,3.12C64.003,6.127 64.147,9.53 64.14,13.33C64.133,17.123 63.663,21.563 62.73,26.65C61.79,31.737 60.663,35.803 59.35,38.85C58.03,41.897 56.553,44.647 54.92,47.1C53.28,49.553 50.84,52.427 47.6,55.72C44.36,59.013 40.623,62.15 36.39,65.13C32.157,68.11 28.073,70.53 24.14,72.39C20.2,74.243 16.103,75.503 11.85,76.17C7.59,76.83 4.003,77.077 1.09,76.91C-1.817,76.743 -5.197,76.223 -9.05,75.35C-12.903,74.477 -16.48,72.67 -19.78,69.93C-23.073,67.183 -25.447,63.67 -26.9,59.39C-28.353,55.103 -28.993,50.797 -28.82,46.47C-28.647,42.137 -27.967,37.41 -26.78,32.29C-25.593,27.17 -24.42,22.723 -23.26,18.95C-22.107,15.177 -20.323,11.347 -17.91,7.46C-15.497,3.573 -13.357,0.337 -11.49,-2.25C-9.617,-4.837 -8.393,-6.447 -7.82,-7.08C-7.247,-7.713 -6.607,-8.27 -5.9,-8.75C-5.193,-9.223 -4.44,-9.61 -3.64,-9.91C-2.833,-10.203 -2.007,-10.397 -1.16,-10.49C-0.313,-10.583 0.533,-10.573 1.38,-10.46C2.227,-10.353 3.047,-10.143 3.84,-9.83C4.64,-9.517 5.387,-9.113 6.08,-8.62C6.78,-8.127 7.41,-7.557 7.97,-6.91C8.53,-6.263 9.007,-5.56 9.4,-4.8C9.787,-4.04 10.077,-3.243 10.27,-2.41C10.47,-1.583 10.563,-0.743 10.55,0.11C10.543,0.963 10.433,1.803 10.22,2.63C10.007,3.457 9.697,4.247 9.29,5C8.883,5.753 8.68,6.13 8.68,6.13Z" style="fill:rgb(255,68,115);fill-rule:nonzero;"/>
        </g>
    </g>
</svg>
