<?xml version="1.0" encoding="UTF-8" standalone="no"?>
<!-- Created with Inkscape (http://www.inkscape.org/) -->

<svg
   width="2609.1057"
   height="685.5553"
   viewBox="0 0 2609.1057 685.5553"
   version="1.1"
   id="svg1"
   xml:space="preserve"
   inkscape:version="1.3 (0e150ed6c4, 2023-07-21)"
   sodipodi:docname="loves vector.svg"
   xmlns:inkscape="http://www.inkscape.org/namespaces/inkscape"
   xmlns:sodipodi="http://sodipodi.sourceforge.net/DTD/sodipodi-0.dtd"
   xmlns="http://www.w3.org/2000/svg"
   xmlns:svg="http://www.w3.org/2000/svg"><sodipodi:namedview
     id="namedview1"
     pagecolor="#505050"
     bordercolor="#eeeeee"
     borderopacity="1"
     inkscape:showpageshadow="0"
     inkscape:pageopacity="0"
     inkscape:pagecheckerboard="0"
     inkscape:deskcolor="#505050"
     inkscape:document-units="px"
     showborder="false"
     inkscape:zoom="0.2608158"
     inkscape:cx="1401.3722"
     inkscape:cy="-118.85783"
     inkscape:window-width="2599"
     inkscape:window-height="2061"
     inkscape:window-x="1223"
     inkscape:window-y="0"
     inkscape:window-maximized="0"
     inkscape:current-layer="layer1"
     showgrid="false"
     showguides="true"><inkscape:grid
       id="grid92"
       units="px"
       originx="-26.657893"
       originy="-32.602564"
       spacingx="1"
       spacingy="1"
       empcolor="#0099e5"
       empopacity="0.30196078"
       color="#0099e5"
       opacity="0.14901961"
       empspacing="5"
       dotted="false"
       gridanglex="30"
       gridanglez="30"
       visible="false" /></sodipodi:namedview><defs
     id="defs1" /><g
     inkscape:label="Layer 1"
     inkscape:groupmode="layer"
     id="layer1"
     transform="translate(-26.657893,-32.602564)"><path
       style="display:inline;fill:#fe5c7e;fill-opacity:1;stroke-width:1.91706"
       d="m 226.62123,716.98957 c -5.1517,-1.0969 -16.2024,-7.2324 -29.6111,-16.4404 -26.8088,-18.4102 -84.6927,-75.4037 -98.615457,-97.0986 -4.92529,-7.6747 -12.6419,-18.6988 -17.14803,-24.4979 -4.50613,-5.7991 -11.18197,-17.1094 -14.8352,-25.1339 -3.65324,-8.0246 -10.40183,-20.1021 -14.99687,-26.8389 -6.37955,-9.3531 -10.29337,-18.634 -16.55565,-39.2584 l -8.20103,-27.0097 0.80728,-69.802 c 0.75281,-65.0916 2.02563,-88.2722 6.83307,-124.4436 2.11422,-15.9075 14.96301,-50.6512 22.27863,-60.2425 2.50622,-3.2858 5.43852,-9.9088 6.51621,-14.7176 2.47444,-11.0415 11.8059,-31.9495 18.97014,-42.5043 3.02303,-4.4538 10.37546,-16.72451 16.33873,-27.26835 18.376677,-32.492426 31.759477,-46.023966 57.817477,-58.460306 10.219,-4.87708 15.182,-5.94268 31.9404,-6.85785 30.0342,-1.64017 63.8043,1.42085 75.0697,6.80454 12.6602,6.05024 24.2339,18.20413 32.7282,34.36886 3.9309,7.480506 7.4775,13.600916 7.8815,13.600916 0.4038,0 3.0376,-4.23191 5.8527,-9.40424 4.8179,-8.852046 53.5627,-57.568486 65.8661,-65.827796 4.3668,-2.93143 10.2965,-3.34378 48.2439,-3.35486 52.1846,-0.0152 59.0218,1.39882 72.4733,14.9888 4.8788,4.92901 11.3968,13.67477 14.4845,19.43503 l 5.614,10.47319 0.1074,57.582466 0.1074,57.5825 -8.055,46.968 c -4.902,28.5835 -11.0854,57.0523 -15.797,72.7307 -4.2581,14.1695 -10.2902,35.7364 -13.4047,47.9266 -3.1145,12.1901 -8.7447,31.222 -12.5116,42.293 -3.767,11.071 -14.5453,47.7348 -23.9518,81.4751 -16.8522,60.4472 -27.9637,91.3072 -37.269,103.5071 -2.6072,3.4182 -16.5408,18.6226 -30.9635,33.7876 -14.4227,15.165 -34.9094,38.1349 -45.5261,51.0444 -18.1998,22.1305 -30.7928,33.3098 -46.6401,41.4044 -7.2969,3.7273 -43.5872,5.7988 -55.8485,3.188 z"
       id="path88" /><path
       style="fill:#ff5150;fill-opacity:1;stroke-width:1.91706"
       d="m 833.97893,598.99447 c -9.6053,-4.2712 -13.1774,-8.0761 -19.6969,-20.9808 -7.3062,-14.4616 -25.5306,-41.6529 -36.1085,-53.8747 -4.4447,-5.1355 -9.348,-12.3725 -10.8962,-16.0823 -1.5483,-3.7098 -7.9421,-13.5519 -14.2087,-21.8715 -27.6568,-36.7177 -49.1565,-95.0863 -65.7481,-178.4968 -12.5516,-63.1004 -12.8374,-66.2088 -12.1629,-132.2772 l 0.6066,-59.42894 6.0696,-8.62677 c 13.1295,-18.661386 54.2669,-54.343936 74.0776,-64.254796 12.4223,-6.21463 14.6015,-6.67649 31.5025,-6.67649 19.0024,0 36.5545,3.48407 48.31,9.58945 3.7536,1.94948 13.8804,10.72583 22.504,19.50301 12.1223,12.33813 18.2956,20.74246 27.2118,37.046166 6.3429,11.59823 12.8342,23.46005 14.4253,26.3596 1.591,2.89956 4.4426,5.26347 6.3368,5.25317 7.1191,-0.039 23.8036,-9.69016 35.4623,-20.5139 12.8571,-11.93641 32.4475,-22.648076 60.95917,-33.331416 44.2147,-16.5673 37.2938,-15.15015 73.9893,-15.15015 37.2932,0 40.9801,0.90905 49.618,12.23395 2.7213,3.56775 9.3443,16.29315 14.7179,28.278676 9.3665,20.89128 9.8436,22.78221 11.5445,45.75514 1.0773,14.55 3.5947,30.3643 6.4083,40.2583 4.0442,14.2211 4.7817,21.7848 5.7944,59.4289 1.4732,54.7641 -0.7689,91.9319 -6.1868,102.5628 -17.7301,34.7895 -32.5749,62.3399 -36.323,67.4116 -2.4654,3.3361 -6.5376,11.7273 -9.0494,18.6471 -2.5117,6.9199 -8.3475,18.3738 -12.9683,25.4532 -10.1027,15.4779 -23.8021,38.8882 -33.4668,57.1896 -10.3669,19.631 -20.671,34.1125 -29.8827,41.9974 -11.2189,9.6029 -35.6278,17.0639 -72.53667,22.1719 -16.3429,2.2619 -33.5965,5.469 -38.3412,7.1271 -4.7447,1.6581 -19.8416,3.7835 -33.5486,4.7231 -13.707,0.9396 -30.9605,2.1191 -38.3412,2.6211 -9.605,0.6534 -15.3105,0.072 -20.0721,-2.0455 z"
       id="path89" /><path
       style="fill:#ff556f;fill-opacity:1;stroke-width:1.91706"
       d="m 1600.7466,715.29017 c -10.5056,-2.167 -16.9425,-6.0071 -51.2768,-30.5909 -27.5428,-19.7209 -35.3085,-26.4978 -54.5415,-47.5965 -46.4073,-50.9091 -57.9276,-66.1841 -72.7731,-96.4914 -7.4889,-15.2885 -17.2736,-32.9734 -21.7438,-39.2997 -8.9559,-12.6746 -37.1338,-67.7686 -43.4496,-84.9534 -2.2032,-5.9948 -10.5814,-25.1339 -18.6182,-42.5312 l -14.6125,-31.6315 0.1373,-46.9681 c 0.1233,-42.2003 0.5584,-48.4275 4.2863,-61.3459 6.364,-22.0537 9.4542,-37.5834 11.444,-57.5119 2.4091,-24.1284 7.3463,-36.1235 24.5513,-59.64849 7.892,-10.79089 17.113,-24.861066 20.4911,-31.267056 3.3782,-6.40598 10.568,-16.11927 15.9775,-21.58507 14.3039,-14.45298 23.7411,-16.824 61.1286,-15.35797 26.8573,1.05312 30.6148,1.68866 56.5657,9.5674 44.3969,13.47899 68.3862,23.72504 79.5581,33.98001 5.2719,4.83925 14.3042,12.478926 20.0719,16.977066 9.7513,7.60504 13.6898,12.22231 21.8146,25.57431 l 3.1693,5.2082 31.5223,-31.20157 c 34.7695,-34.415656 44.7304,-41.278386 84.4551,-58.187146 20.889,-8.89141 21.3494,-8.98875 48.885,-10.3362 16.6805,-0.81626 31.561,-2.58861 37.2081,-4.43169 7.613,-2.48468 18.0502,-3.04327 54.6363,-2.92408 28.9806,0.0944 47.718,0.95516 52.1645,2.39632 10.9188,3.5389 62.4189,35.83779 72.3624,45.38289 11.2308,10.7809 18.2469,25.440306 25.6903,53.677776 l 5.8115,22.0462 0.8227,69.9727 c 0.8577,72.9366 -0.077,87.6641 -7.3036,115.0237 -8.438,31.9485 -28.0622,82.0372 -52.2003,133.2358 -9.1406,19.388 -11.6418,22.8434 -31.032,42.8703 -11.5995,11.9804 -28.4227,26.9731 -37.385,33.3171 -8.9622,6.3439 -19.875,14.4293 -24.2506,17.9675 -14.9737,12.108 -73.7813,50.6721 -88.7425,58.1945 -18.6999,9.4021 -36.28,15.3935 -45.1677,15.3935 -3.7587,0 -11.0717,2.1474 -16.2511,4.7721 -5.1794,2.6246 -19.2602,6.8568 -31.2906,9.4049 -12.0304,2.5481 -25.6646,6.5461 -30.2982,8.8845 -19.7515,9.9678 -49.0757,28.5343 -61.2777,38.7977 -13.6706,11.4987 -19.2436,13.5453 -30.5391,11.2153 z"
       id="path90" /><path
       style="fill:#ff8f69;fill-opacity:1;stroke-width:1.91706"
       d="m 2361.8201,715.64807 c -54.3469,-5.8153 -57.2731,-6.4949 -82.0262,-19.0514 -12.9557,-6.572 -29.3465,-16.1582 -36.4242,-21.3026 -7.0776,-5.1444 -17.9282,-12.3192 -24.1125,-15.944 -24.1463,-14.1529 -66.9592,-68.3781 -77.3738,-97.9989 -4.0496,-11.5175 -5.2565,-19.6946 -6.7392,-45.6616 -2.5355,-44.4022 -0.3612,-182.1369 3.2137,-203.573 1.528,-9.1628 3.3293,-28.573 4.003,-43.1339 0.727,-15.7163 2.3742,-29.5214 4.0534,-33.9729 4.1306,-10.95 6.4583,-24.3708 8.2462,-47.5442 1.26,-16.3327 2.5433,-22.2179 6.2704,-28.7559 2.5773,-4.5212 6.1945,-12.3022 8.0382,-17.2912 3.7754,-10.21633 13.3901,-19.56843 34.9274,-33.97344 20.2565,-13.548386 33.1249,-16.193606 72.2909,-14.860176 52.8181,1.79823 64.8232,6.49292 96.0702,37.568966 l 17.9473,17.84915 5.7864,-4.2781 c 3.1825,-2.353 9.6497,-8.7529 14.3714,-14.22209 7.7609,-8.98936 52.8101,-46.794956 73.9577,-62.065746 l 8.4352,-6.09106 h 47.6333 47.6334 l 7.8778,7.11707 c 4.3327,3.91439 13.748,15.34487 20.9228,25.40107 19.977,27.999746 19.3732,23.400996 18.7062,142.462056 l -0.5608,100.1182 -5.3201,12.4609 c -2.926,6.8535 -9.2398,26.6951 -14.0305,44.0924 -10.603,38.504 -39.6063,119.448 -53.5789,149.5308 -5.6319,12.1254 -12.5535,28.5163 -15.3814,36.4242 -2.8279,7.9079 -8.5288,21.5157 -12.6687,30.2396 -9.0902,19.1555 -23.6551,34.2469 -52.3523,54.2448 -10.5438,7.3477 -25.2093,18.5506 -32.59,24.8955 -8.0923,6.9567 -20.4559,14.9328 -31.1449,20.0924 -17.9406,8.66 -27.7859,10.4966 -35.1477,6.5567 -2.287,-1.224 -6.1416,-1.3831 -9.9385,-0.4101 -3.4114,0.8741 -8.3593,1.3585 -10.9952,1.0765 z"
       id="path91" /></g></svg>
