<?xml version="1.0" standalone="no"?>
<!DOCTYPE svg PUBLIC "-//W3C//DTD SVG 20010904//EN"
 "http://www.w3.org/TR/2001/REC-SVG-20010904/DTD/svg10.dtd">
<svg version="1.0" xmlns="http://www.w3.org/2000/svg"
 width="400.000000pt" height="400.000000pt" viewBox="0 0 400.000000 400.000000"
 preserveAspectRatio="xMidYMid meet">
<metadata>
Created by potrace 1.14, written by Peter Selinger 2001-2017
</metadata>
<g transform="translate(0.000000,400.000000) scale(0.100000,-0.100000)"
fill="#000000" stroke="none">
<path d="M0 2000 l0 -2000 2000 0 2000 0 0 2000 0 2000 -2000 0 -2000 0 0
-2000z m975 408 c34 -15 39 -41 32 -172 -5 -96 -13 -137 -62 -300 -31 -104
-62 -197 -69 -208 -8 -11 -46 -53 -85 -94 -62 -65 -75 -74 -107 -74 -63 0
-164 90 -235 210 l-44 75 1 145 1 145 46 95 c55 112 62 122 104 143 61 32 163
13 178 -32 5 -17 12 -14 58 30 48 46 55 49 104 49 29 0 64 -5 78 -12z m1882
-21 c68 -43 78 -71 78 -222 0 -125 -1 -133 -35 -214 -18 -46 -43 -98 -55 -114
-45 -68 -260 -197 -326 -197 -8 0 -42 -16 -75 -36 -32 -20 -67 -37 -76 -36
-46 2 -181 136 -228 225 -15 28 -37 70 -49 92 -70 130 -84 199 -61 297 5 24
12 54 14 68 6 28 69 129 88 142 44 27 193 -12 252 -67 l38 -34 29 21 c16 12
29 25 29 29 0 18 95 62 148 70 105 14 182 6 229 -24z m-1424 -7 c19 -16 40
-43 47 -60 14 -35 32 -38 58 -10 29 32 138 71 185 68 37 -3 44 -7 65 -45 20
-37 24 -62 29 -172 l6 -128 -50 -94 c-86 -162 -94 -175 -113 -187 -26 -16
-156 -42 -210 -42 l-45 0 -62 93 c-34 50 -69 110 -78 132 -28 67 -55 215 -55
300 0 81 0 81 38 117 49 47 70 57 114 58 27 0 46 -8 71 -30z m2198 -30 c20
-23 30 -49 35 -88 8 -67 0 -218 -14 -252 -6 -14 -20 -56 -32 -95 -12 -38 -40
-111 -62 -160 -36 -85 -43 -94 -106 -140 -66 -49 -68 -50 -134 -48 -77 2 -120
21 -190 82 -88 78 -93 93 -91 271 1 154 3 183 22 292 13 77 23 92 73 116 59
29 128 21 187 -20 43 -29 45 -30 61 -12 8 11 37 35 63 56 43 33 53 36 104 34
50 -2 59 -6 84 -36z"/>
</g>
</svg>
